%TF.GenerationSoftware,KiCad,Pcbnew,9.0.2*%
%TF.CreationDate,2025-07-09T23:55:51-04:00*%
%TF.ProjectId,jammaSFTM-CPS,6a616d6d-6153-4465-944d-2d4350532e6b,rev?*%
%TF.SameCoordinates,Original*%
%TF.FileFunction,Copper,L1,Top*%
%TF.FilePolarity,Positive*%
%FSLAX46Y46*%
G04 Gerber Fmt 4.6, Leading zero omitted, Abs format (unit mm)*
G04 Created by KiCad (PCBNEW 9.0.2) date 2025-07-09 23:55:51*
%MOMM*%
%LPD*%
G01*
G04 APERTURE LIST*
G04 Aperture macros list*
%AMRoundRect*
0 Rectangle with rounded corners*
0 $1 Rounding radius*
0 $2 $3 $4 $5 $6 $7 $8 $9 X,Y pos of 4 corners*
0 Add a 4 corners polygon primitive as box body*
4,1,4,$2,$3,$4,$5,$6,$7,$8,$9,$2,$3,0*
0 Add four circle primitives for the rounded corners*
1,1,$1+$1,$2,$3*
1,1,$1+$1,$4,$5*
1,1,$1+$1,$6,$7*
1,1,$1+$1,$8,$9*
0 Add four rect primitives between the rounded corners*
20,1,$1+$1,$2,$3,$4,$5,0*
20,1,$1+$1,$4,$5,$6,$7,0*
20,1,$1+$1,$6,$7,$8,$9,0*
20,1,$1+$1,$8,$9,$2,$3,0*%
G04 Aperture macros list end*
%TA.AperFunction,ComponentPad*%
%ADD10RoundRect,0.250000X-0.600000X-0.725000X0.600000X-0.725000X0.600000X0.725000X-0.600000X0.725000X0*%
%TD*%
%TA.AperFunction,ComponentPad*%
%ADD11O,1.700000X1.950000*%
%TD*%
%TA.AperFunction,ComponentPad*%
%ADD12RoundRect,0.250000X0.845000X-0.620000X0.845000X0.620000X-0.845000X0.620000X-0.845000X-0.620000X0*%
%TD*%
%TA.AperFunction,ComponentPad*%
%ADD13O,2.190000X1.740000*%
%TD*%
%TA.AperFunction,SMDPad,CuDef*%
%ADD14R,8.000000X2.350000*%
%TD*%
%TA.AperFunction,ComponentPad*%
%ADD15RoundRect,0.250000X0.620000X0.845000X-0.620000X0.845000X-0.620000X-0.845000X0.620000X-0.845000X0*%
%TD*%
%TA.AperFunction,ComponentPad*%
%ADD16O,1.740000X2.190000*%
%TD*%
%TA.AperFunction,ComponentPad*%
%ADD17C,1.524000*%
%TD*%
%TA.AperFunction,ViaPad*%
%ADD18C,0.800000*%
%TD*%
%TA.AperFunction,Conductor*%
%ADD19C,1.000000*%
%TD*%
%TA.AperFunction,Conductor*%
%ADD20C,0.250000*%
%TD*%
%TA.AperFunction,Conductor*%
%ADD21C,0.200000*%
%TD*%
G04 APERTURE END LIST*
D10*
%TO.P,J5,1,Pin_1*%
%TO.N,GND*%
X101701600Y-53441600D03*
D11*
%TO.P,J5,2,Pin_2*%
X104201600Y-53441600D03*
%TO.P,J5,3,Pin_3*%
%TO.N,P1 SHORT*%
X106701600Y-53441600D03*
%TO.P,J5,4,Pin_4*%
%TO.N,P1 FWD*%
X109201600Y-53441600D03*
%TO.P,J5,5,Pin_5*%
%TO.N,P1 ROUNDHOUSE*%
X111701600Y-53441600D03*
%TO.P,J5,6,Pin_6*%
%TO.N,unconnected-(J5-Pad6)*%
X114201600Y-53441600D03*
%TO.P,J5,7,Pin_7*%
%TO.N,P2 SHORT*%
X116701600Y-53441600D03*
%TO.P,J5,8,Pin_8*%
%TO.N,P2 FWD*%
X119201600Y-53441600D03*
%TO.P,J5,9,Pin_9*%
%TO.N,P2 ROUNDHOUSE*%
X121701600Y-53441600D03*
%TO.P,J5,10,Pin_10*%
%TO.N,unconnected-(J5-Pad10)*%
X124201600Y-53441600D03*
%TD*%
D12*
%TO.P,J4,1,Pin_1*%
%TO.N,LEFT SPEAKER +*%
X112344200Y-121843800D03*
D13*
%TO.P,J4,2,Pin_2*%
%TO.N,LEFT SPEAKER -*%
X112344200Y-119303800D03*
%TO.P,J4,3,Pin_3*%
%TO.N,RIGHT SPEAKER +*%
X112344200Y-116763800D03*
%TO.P,J4,4,Pin_4*%
%TO.N,RIGHT SPEAKER -*%
X112344200Y-114223800D03*
%TD*%
D14*
%TO.P,J1,1,Pin_1*%
%TO.N,GND*%
X64544500Y-156228400D03*
%TO.P,J1,2,Pin_2*%
X64544500Y-152268400D03*
%TO.P,J1,3,Pin_3*%
%TO.N,+5V*%
X64544500Y-148308400D03*
%TO.P,J1,4,Pin_4*%
X64544500Y-144348400D03*
%TO.P,J1,5,Pin_5*%
%TO.N,-5V*%
X64544500Y-140388400D03*
%TO.P,J1,6,Pin_6*%
%TO.N,+12V*%
X64544500Y-136428400D03*
%TO.P,J1,8,Pin_8*%
%TO.N,Coin Counter 1*%
X64544500Y-128508400D03*
%TO.P,J1,9,Pin_9*%
%TO.N,Coin Lock 1*%
X64544500Y-124548400D03*
%TO.P,J1,10,Pin_10*%
%TO.N,LSP +*%
X64544500Y-120588400D03*
%TO.P,J1,11,Pin_11*%
%TO.N,RSP +*%
X64544500Y-116628400D03*
%TO.P,J1,12,Pin_12*%
%TO.N,R*%
X64544500Y-112668400D03*
%TO.P,J1,13,Pin_13*%
%TO.N,B*%
X64544500Y-108708400D03*
%TO.P,J1,14,Pin_14*%
%TO.N,VG*%
X64544500Y-104748400D03*
%TO.P,J1,15,Pin_15*%
%TO.N,Test Mode*%
X64544500Y-100788400D03*
%TO.P,J1,16,Pin_16*%
%TO.N,Coin 1*%
X64544500Y-96828400D03*
%TO.P,J1,17,Pin_17*%
%TO.N,ST 1*%
X64544500Y-92868400D03*
%TO.P,J1,18,Pin_18*%
%TO.N,P1 UP*%
X64544500Y-88908400D03*
%TO.P,J1,19,Pin_19*%
%TO.N,P1 DN*%
X64544500Y-84948400D03*
%TO.P,J1,20,Pin_20*%
%TO.N,P1 L*%
X64544500Y-80988400D03*
%TO.P,J1,21,Pin_21*%
%TO.N,P1 R*%
X64544500Y-77028400D03*
%TO.P,J1,22,Pin_22*%
%TO.N,P1 JAB*%
X64544500Y-73068400D03*
%TO.P,J1,23,Pin_23*%
%TO.N,P1 STRONG*%
X64544500Y-69108400D03*
%TO.P,J1,24,Pin_24*%
%TO.N,P1 FIERCE*%
X64544500Y-65148400D03*
%TO.P,J1,25,Pin_25*%
%TO.N,P1 SHORT*%
X64544500Y-61188400D03*
%TO.P,J1,26,Pin_26*%
%TO.N,P1 FWD*%
X64544500Y-57228400D03*
%TO.P,J1,27,Pin_27*%
%TO.N,GND*%
X64544500Y-53268400D03*
%TO.P,J1,28,Pin_28*%
X64544500Y-49308400D03*
%TD*%
%TO.P,J2,1,Pin_1*%
%TO.N,GND*%
X135836100Y-156152200D03*
%TO.P,J2,2,Pin_2*%
X135836100Y-152192200D03*
%TO.P,J2,3,Pin_3*%
%TO.N,+5V*%
X135836100Y-148232200D03*
%TO.P,J2,4,Pin_4*%
X135836100Y-144272200D03*
%TO.P,J2,5,Pin_5*%
%TO.N,-5V*%
X135836100Y-140312200D03*
%TO.P,J2,6,Pin_6*%
%TO.N,+12V*%
X135836100Y-136352200D03*
%TO.P,J2,8,Pin_8*%
%TO.N,Coin Counter 1*%
X135836100Y-128432200D03*
%TO.P,J2,9,Pin_9*%
%TO.N,Coin Lock 1*%
X135836100Y-124472200D03*
%TO.P,J2,10,Pin_10*%
%TO.N,LEFT SPEAKER +*%
X135836100Y-120512200D03*
%TO.P,J2,11,Pin_11*%
%TO.N,RIGHT SPEAKER +*%
X135836100Y-116552200D03*
%TO.P,J2,12,Pin_12*%
%TO.N,R*%
X135836100Y-112592200D03*
%TO.P,J2,13,Pin_13*%
%TO.N,B*%
X135836100Y-108632200D03*
%TO.P,J2,14,Pin_14*%
%TO.N,VG*%
X135836100Y-104672200D03*
%TO.P,J2,15,Pin_15*%
%TO.N,Test Mode*%
X135836100Y-100712200D03*
%TO.P,J2,16,Pin_16*%
%TO.N,Coin 1*%
X135836100Y-96752200D03*
%TO.P,J2,17,Pin_17*%
%TO.N,ST 1*%
X135836100Y-92792200D03*
%TO.P,J2,18,Pin_18*%
%TO.N,P1 UP*%
X135836100Y-88832200D03*
%TO.P,J2,19,Pin_19*%
%TO.N,P1 DN*%
X135836100Y-84872200D03*
%TO.P,J2,20,Pin_20*%
%TO.N,P1 L*%
X135836100Y-80912200D03*
%TO.P,J2,21,Pin_21*%
%TO.N,P1 R*%
X135836100Y-76952200D03*
%TO.P,J2,22,Pin_22*%
%TO.N,P1 JAB*%
X135836100Y-72992200D03*
%TO.P,J2,23,Pin_23*%
%TO.N,P1 STRONG*%
X135836100Y-69032200D03*
%TO.P,J2,24,Pin_24*%
%TO.N,P1 FIERCE*%
X135836100Y-65072200D03*
%TO.P,J2,25,Pin_25*%
%TO.N,unconnected-(J2-Pad25)*%
X135836100Y-61112200D03*
%TO.P,J2,26,Pin_26*%
%TO.N,unconnected-(J2-Pad26)*%
X135836100Y-57152200D03*
%TO.P,J2,27,Pin_27*%
%TO.N,GND*%
X135836100Y-53192200D03*
%TO.P,J2,28,Pin_28*%
X135836100Y-49232200D03*
%TD*%
D15*
%TO.P,J3,1,Pin_1*%
%TO.N,P1 ROUNDHOUSE*%
X93980000Y-54051200D03*
D16*
%TO.P,J3,2,Pin_2*%
%TO.N,GND*%
X91440000Y-54051200D03*
%TO.P,J3,3,Pin_3*%
%TO.N,P2 ROUNDHOUSE*%
X88900000Y-54051200D03*
%TD*%
D17*
%TO.P,J6,1,Pin_1*%
%TO.N,unconnected-(J6-Pad1)*%
X81384200Y-62097600D03*
%TO.P,J6,2,Pin_2*%
%TO.N,unconnected-(J6-Pad2)*%
X81384200Y-64597600D03*
%TO.P,J6,3,Pin_3*%
%TO.N,unconnected-(J6-Pad3)*%
X83884200Y-62097600D03*
%TO.P,J6,4,Pin_4*%
%TO.N,unconnected-(J6-Pad4)*%
X83884200Y-64597600D03*
%TO.P,J6,5,Pin_5*%
%TO.N,unconnected-(J6-Pad5)*%
X86384200Y-62097600D03*
%TO.P,J6,6,Pin_6*%
%TO.N,unconnected-(J6-Pad6)*%
X86384200Y-64597600D03*
%TO.P,J6,7,Pin_7*%
%TO.N,unconnected-(J6-Pad7)*%
X88884200Y-62097600D03*
%TO.P,J6,8,Pin_8*%
%TO.N,unconnected-(J6-Pad8)*%
X88884200Y-64597600D03*
%TO.P,J6,9,Pin_9*%
%TO.N,P2 ROUNDHOUSE*%
X91384200Y-62097600D03*
%TO.P,J6,10,Pin_10*%
%TO.N,unconnected-(J6-Pad10)*%
X91384200Y-64597600D03*
%TO.P,J6,11,Pin_11*%
%TO.N,unconnected-(J6-Pad11)*%
X93884200Y-62097600D03*
%TO.P,J6,12,Pin_12*%
%TO.N,unconnected-(J6-Pad12)*%
X93884200Y-64597600D03*
%TO.P,J6,13,Pin_13*%
%TO.N,unconnected-(J6-Pad13)*%
X96384200Y-62097600D03*
%TO.P,J6,14,Pin_14*%
%TO.N,unconnected-(J6-Pad14)*%
X96384200Y-64597600D03*
%TO.P,J6,15,Pin_15*%
%TO.N,P1 ROUNDHOUSE*%
X98884200Y-62097600D03*
%TO.P,J6,16,Pin_16*%
%TO.N,unconnected-(J6-Pad16)*%
X98884200Y-64597600D03*
%TO.P,J6,17,Pin_17*%
%TO.N,P1 FWD*%
X101384200Y-62097600D03*
%TO.P,J6,18,Pin_18*%
%TO.N,unconnected-(J6-Pad18)*%
X101384200Y-64597600D03*
%TO.P,J6,19,Pin_19*%
%TO.N,P1 SHORT*%
X103884200Y-62097600D03*
%TO.P,J6,20,Pin_20*%
%TO.N,unconnected-(J6-Pad20)*%
X103884200Y-64597600D03*
%TO.P,J6,21,Pin_21*%
%TO.N,P2 SHORT*%
X106384200Y-62097600D03*
%TO.P,J6,22,Pin_22*%
%TO.N,unconnected-(J6-Pad22)*%
X106384200Y-64597600D03*
%TO.P,J6,23,Pin_23*%
%TO.N,P2 FWD*%
X108884200Y-62097600D03*
%TO.P,J6,24,Pin_24*%
%TO.N,unconnected-(J6-Pad24)*%
X108884200Y-64597600D03*
%TO.P,J6,25,Pin_25*%
%TO.N,unconnected-(J6-Pad25)*%
X111384200Y-62097600D03*
%TO.P,J6,26,Pin_26*%
%TO.N,unconnected-(J6-Pad26)*%
X111384200Y-64597600D03*
%TO.P,J6,27,Pin_27*%
%TO.N,unconnected-(J6-Pad27)*%
X113884200Y-62097600D03*
%TO.P,J6,28,Pin_28*%
%TO.N,unconnected-(J6-Pad28)*%
X113884200Y-64597600D03*
%TO.P,J6,29,Pin_29*%
%TO.N,unconnected-(J6-Pad29)*%
X116384200Y-62097600D03*
%TO.P,J6,30,Pin_30*%
%TO.N,unconnected-(J6-Pad30)*%
X116384200Y-64597600D03*
%TO.P,J6,31,Pin_31*%
%TO.N,unconnected-(J6-Pad31)*%
X118884200Y-62097600D03*
%TO.P,J6,32,Pin_32*%
%TO.N,unconnected-(J6-Pad32)*%
X118884200Y-64597600D03*
%TO.P,J6,33,Pin_33*%
%TO.N,GND*%
X121384200Y-62097600D03*
%TO.P,J6,34,Pin_34*%
X121384200Y-64597600D03*
%TD*%
D18*
%TO.N,GND*%
X64544500Y-51330300D03*
X64544500Y-154225700D03*
%TO.N,P2 SHORT*%
X75260200Y-61214000D03*
X72288400Y-61188600D03*
%TO.N,+12V*%
X71978600Y-136352200D03*
%TO.N,-5V*%
X71955600Y-140312200D03*
%TO.N,+5V*%
X64544500Y-146402500D03*
%TD*%
D19*
%TO.N,GND*%
X64544500Y-156228400D02*
X64544500Y-152268400D01*
X135836100Y-156152200D02*
X135836100Y-152192200D01*
X64544500Y-152268400D02*
X135759900Y-152268400D01*
D20*
X121384200Y-62097600D02*
X123551000Y-62097600D01*
D19*
X64544500Y-53268400D02*
X64544500Y-49308400D01*
D20*
X123551000Y-62097600D02*
X132456400Y-53192200D01*
X99644200Y-51384200D02*
X101701600Y-53441600D01*
D19*
X91345400Y-49232200D02*
X64620700Y-49232200D01*
D20*
X121384200Y-64597600D02*
X121384200Y-62097600D01*
X64620700Y-156152200D02*
X64544500Y-156228400D01*
X104201600Y-53441600D02*
X101701600Y-53441600D01*
X64620700Y-49232200D02*
X64544500Y-49308400D01*
D19*
X135836100Y-53192200D02*
X135836100Y-49232200D01*
D20*
X132456400Y-53192200D02*
X135836100Y-53192200D01*
X91440000Y-49326800D02*
X91345400Y-49232200D01*
D19*
X135836100Y-49232200D02*
X91345400Y-49232200D01*
D20*
X94107000Y-51384200D02*
X99644200Y-51384200D01*
X91440000Y-54051200D02*
X91440000Y-49326800D01*
X135759900Y-152268400D02*
X135836100Y-152192200D01*
X91440000Y-54051200D02*
X94107000Y-51384200D01*
%TO.N,P2 SHORT*%
X72313800Y-61214000D02*
X72288400Y-61188600D01*
X75260200Y-61214000D02*
X72313800Y-61214000D01*
%TO.N,+12V*%
X64544500Y-136428400D02*
X135759900Y-136428400D01*
X135759900Y-136428400D02*
X135836100Y-136352200D01*
%TO.N,-5V*%
X64620700Y-140312200D02*
X64544500Y-140388400D01*
X135836100Y-140312200D02*
X64620700Y-140312200D01*
%TO.N,+5V*%
X64620700Y-148232200D02*
X64544500Y-148308400D01*
X135836100Y-148232200D02*
X64620700Y-148232200D01*
X64544500Y-144348400D02*
X64544500Y-148308400D01*
X64544500Y-144348400D02*
X135759900Y-144348400D01*
X135759900Y-144348400D02*
X135836100Y-144272200D01*
%TO.N,Coin Counter 1*%
X64620700Y-128432200D02*
X64544500Y-128508400D01*
X135836100Y-128432200D02*
X64620700Y-128432200D01*
%TO.N,Coin Lock 1*%
X64544500Y-124548400D02*
X135759900Y-124548400D01*
X135759900Y-124548400D02*
X135836100Y-124472200D01*
%TO.N,R*%
X64620700Y-112592200D02*
X64544500Y-112668400D01*
X135836100Y-112592200D02*
X64620700Y-112592200D01*
%TO.N,B*%
X135759900Y-108708400D02*
X135836100Y-108632200D01*
X64544500Y-108708400D02*
X135759900Y-108708400D01*
%TO.N,VG*%
X64620700Y-104672200D02*
X64544500Y-104748400D01*
X135836100Y-104672200D02*
X64620700Y-104672200D01*
%TO.N,Test Mode*%
X135759900Y-100788400D02*
X135836100Y-100712200D01*
X64544500Y-100788400D02*
X135759900Y-100788400D01*
%TO.N,Coin 1*%
X135836100Y-96752200D02*
X64620700Y-96752200D01*
X64620700Y-96752200D02*
X64544500Y-96828400D01*
%TO.N,ST 1*%
X64620700Y-92792200D02*
X64544500Y-92868400D01*
X135836100Y-92792200D02*
X64620700Y-92792200D01*
%TO.N,P1 UP*%
X135759900Y-88908400D02*
X135836100Y-88832200D01*
X64544500Y-88908400D02*
X135759900Y-88908400D01*
%TO.N,P1 DN*%
X135836100Y-84872200D02*
X64620700Y-84872200D01*
X64620700Y-84872200D02*
X64544500Y-84948400D01*
%TO.N,P1 L*%
X135759900Y-80988400D02*
X135836100Y-80912200D01*
X64544500Y-80988400D02*
X135759900Y-80988400D01*
%TO.N,P1 R*%
X64620700Y-76952200D02*
X64544500Y-77028400D01*
X135836100Y-76952200D02*
X64620700Y-76952200D01*
%TO.N,P1 JAB*%
X64620700Y-72992200D02*
X64544500Y-73068400D01*
X135836100Y-72992200D02*
X64620700Y-72992200D01*
%TO.N,P1 STRONG*%
X64544500Y-69108400D02*
X135759900Y-69108400D01*
X135759900Y-69108400D02*
X135836100Y-69032200D01*
%TO.N,P1 FIERCE*%
X127459800Y-65072200D02*
X125018800Y-67513200D01*
X135836100Y-65072200D02*
X127459800Y-65072200D01*
X77317600Y-67513200D02*
X74952800Y-65148400D01*
X74952800Y-65148400D02*
X64544500Y-65148400D01*
X125018800Y-67513200D02*
X77317600Y-67513200D01*
%TO.N,P1 SHORT*%
X97663000Y-62788800D02*
X97663000Y-61137800D01*
X97663000Y-61137800D02*
X97536289Y-61011089D01*
X71450200Y-59969400D02*
X70231200Y-61188400D01*
X70231200Y-61188400D02*
X64544500Y-61188400D01*
X97536289Y-61011089D02*
X97536289Y-60680889D01*
X103884200Y-62097600D02*
X102685000Y-63296800D01*
X96824800Y-59969400D02*
X71450200Y-59969400D01*
X97536289Y-60680889D02*
X96824800Y-59969400D01*
X98171000Y-63296800D02*
X97663000Y-62788800D01*
X102685000Y-63296800D02*
X98171000Y-63296800D01*
%TO.N,P1 FWD*%
X109201600Y-54280200D02*
X101384200Y-62097600D01*
X70842800Y-57228400D02*
X64544500Y-57228400D01*
X101384200Y-62097600D02*
X98290800Y-59004200D01*
X98290800Y-59004200D02*
X72618600Y-59004200D01*
X72618600Y-59004200D02*
X70842800Y-57228400D01*
X109201600Y-53441600D02*
X109201600Y-54280200D01*
D21*
%TO.N,LEFT SPEAKER +*%
X113675800Y-120512200D02*
X112344200Y-121843800D01*
X135836100Y-120512200D02*
X113675800Y-120512200D01*
%TO.N,RIGHT SPEAKER +*%
X112555800Y-116552200D02*
X112344200Y-116763800D01*
X135836100Y-116552200D02*
X112555800Y-116552200D01*
%TD*%
M02*
