M48
; DRILL file {KiCad 9.0.2} date 2025-07-09T23:55:48-0400
; FORMAT={-:-/ absolute / metric / decimal}
; #@! TF.CreationDate,2025-07-09T23:55:48-04:00
; #@! TF.GenerationSoftware,Kicad,Pcbnew,9.0.2
; #@! TF.FileFunction,Plated,1,2,PTH
FMAT,2
METRIC
; #@! TA.AperFunction,Plated,PTH,ViaDrill
T1C0.400
; #@! TA.AperFunction,Plated,PTH,ComponentDrill
T2C0.762
; #@! TA.AperFunction,Plated,PTH,ComponentDrill
T3C0.950
; #@! TA.AperFunction,Plated,PTH,ComponentDrill
T4C1.190
%
G90
G05
T1
X64.544Y-51.33
X64.544Y-146.403
X64.544Y-154.226
X71.956Y-140.312
X71.979Y-136.352
X72.288Y-61.189
X75.26Y-61.214
T2
X81.384Y-62.098
X81.384Y-64.598
X83.884Y-62.098
X83.884Y-64.598
X86.384Y-62.098
X86.384Y-64.598
X88.884Y-62.098
X88.884Y-64.598
X91.384Y-62.098
X91.384Y-64.598
X93.884Y-62.098
X93.884Y-64.598
X96.384Y-62.098
X96.384Y-64.598
X98.884Y-62.098
X98.884Y-64.598
X101.384Y-62.098
X101.384Y-64.598
X103.884Y-62.098
X103.884Y-64.598
X106.384Y-62.098
X106.384Y-64.598
X108.884Y-62.098
X108.884Y-64.598
X111.384Y-62.098
X111.384Y-64.598
X113.884Y-62.098
X113.884Y-64.598
X116.384Y-62.098
X116.384Y-64.598
X118.884Y-62.098
X118.884Y-64.598
X121.384Y-62.098
X121.384Y-64.598
T3
X101.702Y-53.442
X104.202Y-53.442
X106.702Y-53.442
X109.202Y-53.442
X111.702Y-53.442
X114.202Y-53.442
X116.702Y-53.442
X119.202Y-53.442
X121.702Y-53.442
X124.202Y-53.442
T4
X88.9Y-54.051
X91.44Y-54.051
X93.98Y-54.051
X112.344Y-114.224
X112.344Y-116.764
X112.344Y-119.304
X112.344Y-121.844
M30
