%TF.GenerationSoftware,KiCad,Pcbnew,9.0.2*%
%TF.CreationDate,2025-07-09T23:55:51-04:00*%
%TF.ProjectId,jammaSFTM-CPS,6a616d6d-6153-4465-944d-2d4350532e6b,rev?*%
%TF.SameCoordinates,Original*%
%TF.FileFunction,Legend,Top*%
%TF.FilePolarity,Positive*%
%FSLAX46Y46*%
G04 Gerber Fmt 4.6, Leading zero omitted, Abs format (unit mm)*
G04 Created by KiCad (PCBNEW 9.0.2) date 2025-07-09 23:55:51*
%MOMM*%
%LPD*%
G01*
G04 APERTURE LIST*
%ADD10C,0.150000*%
%ADD11C,0.120000*%
G04 APERTURE END LIST*
D10*
X100844579Y-156968819D02*
X100844579Y-155968819D01*
X100844579Y-155968819D02*
X101082674Y-155968819D01*
X101082674Y-155968819D02*
X101225531Y-156016438D01*
X101225531Y-156016438D02*
X101320769Y-156111676D01*
X101320769Y-156111676D02*
X101368388Y-156206914D01*
X101368388Y-156206914D02*
X101416007Y-156397390D01*
X101416007Y-156397390D02*
X101416007Y-156540247D01*
X101416007Y-156540247D02*
X101368388Y-156730723D01*
X101368388Y-156730723D02*
X101320769Y-156825961D01*
X101320769Y-156825961D02*
X101225531Y-156921200D01*
X101225531Y-156921200D02*
X101082674Y-156968819D01*
X101082674Y-156968819D02*
X100844579Y-156968819D01*
X102225531Y-156921200D02*
X102130293Y-156968819D01*
X102130293Y-156968819D02*
X101939817Y-156968819D01*
X101939817Y-156968819D02*
X101844579Y-156921200D01*
X101844579Y-156921200D02*
X101796960Y-156825961D01*
X101796960Y-156825961D02*
X101796960Y-156445009D01*
X101796960Y-156445009D02*
X101844579Y-156349771D01*
X101844579Y-156349771D02*
X101939817Y-156302152D01*
X101939817Y-156302152D02*
X102130293Y-156302152D01*
X102130293Y-156302152D02*
X102225531Y-156349771D01*
X102225531Y-156349771D02*
X102273150Y-156445009D01*
X102273150Y-156445009D02*
X102273150Y-156540247D01*
X102273150Y-156540247D02*
X101796960Y-156635485D01*
X102654103Y-156921200D02*
X102749341Y-156968819D01*
X102749341Y-156968819D02*
X102939817Y-156968819D01*
X102939817Y-156968819D02*
X103035055Y-156921200D01*
X103035055Y-156921200D02*
X103082674Y-156825961D01*
X103082674Y-156825961D02*
X103082674Y-156778342D01*
X103082674Y-156778342D02*
X103035055Y-156683104D01*
X103035055Y-156683104D02*
X102939817Y-156635485D01*
X102939817Y-156635485D02*
X102796960Y-156635485D01*
X102796960Y-156635485D02*
X102701722Y-156587866D01*
X102701722Y-156587866D02*
X102654103Y-156492628D01*
X102654103Y-156492628D02*
X102654103Y-156445009D01*
X102654103Y-156445009D02*
X102701722Y-156349771D01*
X102701722Y-156349771D02*
X102796960Y-156302152D01*
X102796960Y-156302152D02*
X102939817Y-156302152D01*
X102939817Y-156302152D02*
X103035055Y-156349771D01*
X103511246Y-156968819D02*
X103511246Y-156302152D01*
X103511246Y-155968819D02*
X103463627Y-156016438D01*
X103463627Y-156016438D02*
X103511246Y-156064057D01*
X103511246Y-156064057D02*
X103558865Y-156016438D01*
X103558865Y-156016438D02*
X103511246Y-155968819D01*
X103511246Y-155968819D02*
X103511246Y-156064057D01*
X104416007Y-156302152D02*
X104416007Y-157111676D01*
X104416007Y-157111676D02*
X104368388Y-157206914D01*
X104368388Y-157206914D02*
X104320769Y-157254533D01*
X104320769Y-157254533D02*
X104225531Y-157302152D01*
X104225531Y-157302152D02*
X104082674Y-157302152D01*
X104082674Y-157302152D02*
X103987436Y-157254533D01*
X104416007Y-156921200D02*
X104320769Y-156968819D01*
X104320769Y-156968819D02*
X104130293Y-156968819D01*
X104130293Y-156968819D02*
X104035055Y-156921200D01*
X104035055Y-156921200D02*
X103987436Y-156873580D01*
X103987436Y-156873580D02*
X103939817Y-156778342D01*
X103939817Y-156778342D02*
X103939817Y-156492628D01*
X103939817Y-156492628D02*
X103987436Y-156397390D01*
X103987436Y-156397390D02*
X104035055Y-156349771D01*
X104035055Y-156349771D02*
X104130293Y-156302152D01*
X104130293Y-156302152D02*
X104320769Y-156302152D01*
X104320769Y-156302152D02*
X104416007Y-156349771D01*
X104892198Y-156302152D02*
X104892198Y-156968819D01*
X104892198Y-156397390D02*
X104939817Y-156349771D01*
X104939817Y-156349771D02*
X105035055Y-156302152D01*
X105035055Y-156302152D02*
X105177912Y-156302152D01*
X105177912Y-156302152D02*
X105273150Y-156349771D01*
X105273150Y-156349771D02*
X105320769Y-156445009D01*
X105320769Y-156445009D02*
X105320769Y-156968819D01*
X106177912Y-156921200D02*
X106082674Y-156968819D01*
X106082674Y-156968819D02*
X105892198Y-156968819D01*
X105892198Y-156968819D02*
X105796960Y-156921200D01*
X105796960Y-156921200D02*
X105749341Y-156825961D01*
X105749341Y-156825961D02*
X105749341Y-156445009D01*
X105749341Y-156445009D02*
X105796960Y-156349771D01*
X105796960Y-156349771D02*
X105892198Y-156302152D01*
X105892198Y-156302152D02*
X106082674Y-156302152D01*
X106082674Y-156302152D02*
X106177912Y-156349771D01*
X106177912Y-156349771D02*
X106225531Y-156445009D01*
X106225531Y-156445009D02*
X106225531Y-156540247D01*
X106225531Y-156540247D02*
X105749341Y-156635485D01*
X107082674Y-156968819D02*
X107082674Y-155968819D01*
X107082674Y-156921200D02*
X106987436Y-156968819D01*
X106987436Y-156968819D02*
X106796960Y-156968819D01*
X106796960Y-156968819D02*
X106701722Y-156921200D01*
X106701722Y-156921200D02*
X106654103Y-156873580D01*
X106654103Y-156873580D02*
X106606484Y-156778342D01*
X106606484Y-156778342D02*
X106606484Y-156492628D01*
X106606484Y-156492628D02*
X106654103Y-156397390D01*
X106654103Y-156397390D02*
X106701722Y-156349771D01*
X106701722Y-156349771D02*
X106796960Y-156302152D01*
X106796960Y-156302152D02*
X106987436Y-156302152D01*
X106987436Y-156302152D02*
X107082674Y-156349771D01*
X108320770Y-156968819D02*
X108320770Y-155968819D01*
X108320770Y-156349771D02*
X108416008Y-156302152D01*
X108416008Y-156302152D02*
X108606484Y-156302152D01*
X108606484Y-156302152D02*
X108701722Y-156349771D01*
X108701722Y-156349771D02*
X108749341Y-156397390D01*
X108749341Y-156397390D02*
X108796960Y-156492628D01*
X108796960Y-156492628D02*
X108796960Y-156778342D01*
X108796960Y-156778342D02*
X108749341Y-156873580D01*
X108749341Y-156873580D02*
X108701722Y-156921200D01*
X108701722Y-156921200D02*
X108606484Y-156968819D01*
X108606484Y-156968819D02*
X108416008Y-156968819D01*
X108416008Y-156968819D02*
X108320770Y-156921200D01*
X109130294Y-156302152D02*
X109368389Y-156968819D01*
X109606484Y-156302152D02*
X109368389Y-156968819D01*
X109368389Y-156968819D02*
X109273151Y-157206914D01*
X109273151Y-157206914D02*
X109225532Y-157254533D01*
X109225532Y-157254533D02*
X109130294Y-157302152D01*
X110749342Y-156968819D02*
X110749342Y-155968819D01*
X110749342Y-155968819D02*
X111320770Y-156968819D01*
X111320770Y-156968819D02*
X111320770Y-155968819D01*
X112225532Y-156968819D02*
X112225532Y-156445009D01*
X112225532Y-156445009D02*
X112177913Y-156349771D01*
X112177913Y-156349771D02*
X112082675Y-156302152D01*
X112082675Y-156302152D02*
X111892199Y-156302152D01*
X111892199Y-156302152D02*
X111796961Y-156349771D01*
X112225532Y-156921200D02*
X112130294Y-156968819D01*
X112130294Y-156968819D02*
X111892199Y-156968819D01*
X111892199Y-156968819D02*
X111796961Y-156921200D01*
X111796961Y-156921200D02*
X111749342Y-156825961D01*
X111749342Y-156825961D02*
X111749342Y-156730723D01*
X111749342Y-156730723D02*
X111796961Y-156635485D01*
X111796961Y-156635485D02*
X111892199Y-156587866D01*
X111892199Y-156587866D02*
X112130294Y-156587866D01*
X112130294Y-156587866D02*
X112225532Y-156540247D01*
X112558866Y-156302152D02*
X112939818Y-156302152D01*
X112701723Y-155968819D02*
X112701723Y-156825961D01*
X112701723Y-156825961D02*
X112749342Y-156921200D01*
X112749342Y-156921200D02*
X112844580Y-156968819D01*
X112844580Y-156968819D02*
X112939818Y-156968819D01*
X113654104Y-156921200D02*
X113558866Y-156968819D01*
X113558866Y-156968819D02*
X113368390Y-156968819D01*
X113368390Y-156968819D02*
X113273152Y-156921200D01*
X113273152Y-156921200D02*
X113225533Y-156825961D01*
X113225533Y-156825961D02*
X113225533Y-156445009D01*
X113225533Y-156445009D02*
X113273152Y-156349771D01*
X113273152Y-156349771D02*
X113368390Y-156302152D01*
X113368390Y-156302152D02*
X113558866Y-156302152D01*
X113558866Y-156302152D02*
X113654104Y-156349771D01*
X113654104Y-156349771D02*
X113701723Y-156445009D01*
X113701723Y-156445009D02*
X113701723Y-156540247D01*
X113701723Y-156540247D02*
X113225533Y-156635485D01*
X115368390Y-156968819D02*
X114892200Y-156968819D01*
X114892200Y-156968819D02*
X114892200Y-155968819D01*
X115844581Y-156968819D02*
X115749343Y-156921200D01*
X115749343Y-156921200D02*
X115701724Y-156873580D01*
X115701724Y-156873580D02*
X115654105Y-156778342D01*
X115654105Y-156778342D02*
X115654105Y-156492628D01*
X115654105Y-156492628D02*
X115701724Y-156397390D01*
X115701724Y-156397390D02*
X115749343Y-156349771D01*
X115749343Y-156349771D02*
X115844581Y-156302152D01*
X115844581Y-156302152D02*
X115987438Y-156302152D01*
X115987438Y-156302152D02*
X116082676Y-156349771D01*
X116082676Y-156349771D02*
X116130295Y-156397390D01*
X116130295Y-156397390D02*
X116177914Y-156492628D01*
X116177914Y-156492628D02*
X116177914Y-156778342D01*
X116177914Y-156778342D02*
X116130295Y-156873580D01*
X116130295Y-156873580D02*
X116082676Y-156921200D01*
X116082676Y-156921200D02*
X115987438Y-156968819D01*
X115987438Y-156968819D02*
X115844581Y-156968819D01*
X117035057Y-156921200D02*
X116939819Y-156968819D01*
X116939819Y-156968819D02*
X116749343Y-156968819D01*
X116749343Y-156968819D02*
X116654105Y-156921200D01*
X116654105Y-156921200D02*
X116606486Y-156873580D01*
X116606486Y-156873580D02*
X116558867Y-156778342D01*
X116558867Y-156778342D02*
X116558867Y-156492628D01*
X116558867Y-156492628D02*
X116606486Y-156397390D01*
X116606486Y-156397390D02*
X116654105Y-156349771D01*
X116654105Y-156349771D02*
X116749343Y-156302152D01*
X116749343Y-156302152D02*
X116939819Y-156302152D01*
X116939819Y-156302152D02*
X117035057Y-156349771D01*
X117463629Y-156968819D02*
X117463629Y-155968819D01*
X117558867Y-156587866D02*
X117844581Y-156968819D01*
X117844581Y-156302152D02*
X117463629Y-156683104D01*
X118273153Y-156968819D02*
X118273153Y-155968819D01*
X118701724Y-156968819D02*
X118701724Y-156445009D01*
X118701724Y-156445009D02*
X118654105Y-156349771D01*
X118654105Y-156349771D02*
X118558867Y-156302152D01*
X118558867Y-156302152D02*
X118416010Y-156302152D01*
X118416010Y-156302152D02*
X118320772Y-156349771D01*
X118320772Y-156349771D02*
X118273153Y-156397390D01*
X119606486Y-156968819D02*
X119606486Y-156445009D01*
X119606486Y-156445009D02*
X119558867Y-156349771D01*
X119558867Y-156349771D02*
X119463629Y-156302152D01*
X119463629Y-156302152D02*
X119273153Y-156302152D01*
X119273153Y-156302152D02*
X119177915Y-156349771D01*
X119606486Y-156921200D02*
X119511248Y-156968819D01*
X119511248Y-156968819D02*
X119273153Y-156968819D01*
X119273153Y-156968819D02*
X119177915Y-156921200D01*
X119177915Y-156921200D02*
X119130296Y-156825961D01*
X119130296Y-156825961D02*
X119130296Y-156730723D01*
X119130296Y-156730723D02*
X119177915Y-156635485D01*
X119177915Y-156635485D02*
X119273153Y-156587866D01*
X119273153Y-156587866D02*
X119511248Y-156587866D01*
X119511248Y-156587866D02*
X119606486Y-156540247D01*
X120082677Y-156968819D02*
X120082677Y-156302152D01*
X120082677Y-156492628D02*
X120130296Y-156397390D01*
X120130296Y-156397390D02*
X120177915Y-156349771D01*
X120177915Y-156349771D02*
X120273153Y-156302152D01*
X120273153Y-156302152D02*
X120368391Y-156302152D01*
X120558868Y-156302152D02*
X120939820Y-156302152D01*
X120701725Y-155968819D02*
X120701725Y-156825961D01*
X120701725Y-156825961D02*
X120749344Y-156921200D01*
X120749344Y-156921200D02*
X120844582Y-156968819D01*
X120844582Y-156968819D02*
X120939820Y-156968819D01*
X121320773Y-156921200D02*
X121320773Y-156968819D01*
X121320773Y-156968819D02*
X121273154Y-157064057D01*
X121273154Y-157064057D02*
X121225535Y-157111676D01*
X122416011Y-155968819D02*
X123082677Y-155968819D01*
X123082677Y-155968819D02*
X122654106Y-156968819D01*
X124177915Y-155921200D02*
X123320773Y-157206914D01*
X124558868Y-156968819D02*
X124749344Y-156968819D01*
X124749344Y-156968819D02*
X124844582Y-156921200D01*
X124844582Y-156921200D02*
X124892201Y-156873580D01*
X124892201Y-156873580D02*
X124987439Y-156730723D01*
X124987439Y-156730723D02*
X125035058Y-156540247D01*
X125035058Y-156540247D02*
X125035058Y-156159295D01*
X125035058Y-156159295D02*
X124987439Y-156064057D01*
X124987439Y-156064057D02*
X124939820Y-156016438D01*
X124939820Y-156016438D02*
X124844582Y-155968819D01*
X124844582Y-155968819D02*
X124654106Y-155968819D01*
X124654106Y-155968819D02*
X124558868Y-156016438D01*
X124558868Y-156016438D02*
X124511249Y-156064057D01*
X124511249Y-156064057D02*
X124463630Y-156159295D01*
X124463630Y-156159295D02*
X124463630Y-156397390D01*
X124463630Y-156397390D02*
X124511249Y-156492628D01*
X124511249Y-156492628D02*
X124558868Y-156540247D01*
X124558868Y-156540247D02*
X124654106Y-156587866D01*
X124654106Y-156587866D02*
X124844582Y-156587866D01*
X124844582Y-156587866D02*
X124939820Y-156540247D01*
X124939820Y-156540247D02*
X124987439Y-156492628D01*
X124987439Y-156492628D02*
X125035058Y-156397390D01*
X126177915Y-155921200D02*
X125320773Y-157206914D01*
X126463630Y-156064057D02*
X126511249Y-156016438D01*
X126511249Y-156016438D02*
X126606487Y-155968819D01*
X126606487Y-155968819D02*
X126844582Y-155968819D01*
X126844582Y-155968819D02*
X126939820Y-156016438D01*
X126939820Y-156016438D02*
X126987439Y-156064057D01*
X126987439Y-156064057D02*
X127035058Y-156159295D01*
X127035058Y-156159295D02*
X127035058Y-156254533D01*
X127035058Y-156254533D02*
X126987439Y-156397390D01*
X126987439Y-156397390D02*
X126416011Y-156968819D01*
X126416011Y-156968819D02*
X127035058Y-156968819D01*
X127654106Y-155968819D02*
X127749344Y-155968819D01*
X127749344Y-155968819D02*
X127844582Y-156016438D01*
X127844582Y-156016438D02*
X127892201Y-156064057D01*
X127892201Y-156064057D02*
X127939820Y-156159295D01*
X127939820Y-156159295D02*
X127987439Y-156349771D01*
X127987439Y-156349771D02*
X127987439Y-156587866D01*
X127987439Y-156587866D02*
X127939820Y-156778342D01*
X127939820Y-156778342D02*
X127892201Y-156873580D01*
X127892201Y-156873580D02*
X127844582Y-156921200D01*
X127844582Y-156921200D02*
X127749344Y-156968819D01*
X127749344Y-156968819D02*
X127654106Y-156968819D01*
X127654106Y-156968819D02*
X127558868Y-156921200D01*
X127558868Y-156921200D02*
X127511249Y-156873580D01*
X127511249Y-156873580D02*
X127463630Y-156778342D01*
X127463630Y-156778342D02*
X127416011Y-156587866D01*
X127416011Y-156587866D02*
X127416011Y-156349771D01*
X127416011Y-156349771D02*
X127463630Y-156159295D01*
X127463630Y-156159295D02*
X127511249Y-156064057D01*
X127511249Y-156064057D02*
X127558868Y-156016438D01*
X127558868Y-156016438D02*
X127654106Y-155968819D01*
X128368392Y-156064057D02*
X128416011Y-156016438D01*
X128416011Y-156016438D02*
X128511249Y-155968819D01*
X128511249Y-155968819D02*
X128749344Y-155968819D01*
X128749344Y-155968819D02*
X128844582Y-156016438D01*
X128844582Y-156016438D02*
X128892201Y-156064057D01*
X128892201Y-156064057D02*
X128939820Y-156159295D01*
X128939820Y-156159295D02*
X128939820Y-156254533D01*
X128939820Y-156254533D02*
X128892201Y-156397390D01*
X128892201Y-156397390D02*
X128320773Y-156968819D01*
X128320773Y-156968819D02*
X128939820Y-156968819D01*
X129844582Y-155968819D02*
X129368392Y-155968819D01*
X129368392Y-155968819D02*
X129320773Y-156445009D01*
X129320773Y-156445009D02*
X129368392Y-156397390D01*
X129368392Y-156397390D02*
X129463630Y-156349771D01*
X129463630Y-156349771D02*
X129701725Y-156349771D01*
X129701725Y-156349771D02*
X129796963Y-156397390D01*
X129796963Y-156397390D02*
X129844582Y-156445009D01*
X129844582Y-156445009D02*
X129892201Y-156540247D01*
X129892201Y-156540247D02*
X129892201Y-156778342D01*
X129892201Y-156778342D02*
X129844582Y-156873580D01*
X129844582Y-156873580D02*
X129796963Y-156921200D01*
X129796963Y-156921200D02*
X129701725Y-156968819D01*
X129701725Y-156968819D02*
X129463630Y-156968819D01*
X129463630Y-156968819D02*
X129368392Y-156921200D01*
X129368392Y-156921200D02*
X129320773Y-156873580D01*
X70456588Y-136877419D02*
X69885160Y-136877419D01*
X70170874Y-136877419D02*
X70170874Y-135877419D01*
X70170874Y-135877419D02*
X70075636Y-136020276D01*
X70075636Y-136020276D02*
X69980398Y-136115514D01*
X69980398Y-136115514D02*
X69885160Y-136163133D01*
X70837541Y-135972657D02*
X70885160Y-135925038D01*
X70885160Y-135925038D02*
X70980398Y-135877419D01*
X70980398Y-135877419D02*
X71218493Y-135877419D01*
X71218493Y-135877419D02*
X71313731Y-135925038D01*
X71313731Y-135925038D02*
X71361350Y-135972657D01*
X71361350Y-135972657D02*
X71408969Y-136067895D01*
X71408969Y-136067895D02*
X71408969Y-136163133D01*
X71408969Y-136163133D02*
X71361350Y-136305990D01*
X71361350Y-136305990D02*
X70789922Y-136877419D01*
X70789922Y-136877419D02*
X71408969Y-136877419D01*
X71694684Y-135877419D02*
X72028017Y-136877419D01*
X72028017Y-136877419D02*
X72361350Y-135877419D01*
X69881979Y-140382666D02*
X70643884Y-140382666D01*
X71596264Y-139763619D02*
X71120074Y-139763619D01*
X71120074Y-139763619D02*
X71072455Y-140239809D01*
X71072455Y-140239809D02*
X71120074Y-140192190D01*
X71120074Y-140192190D02*
X71215312Y-140144571D01*
X71215312Y-140144571D02*
X71453407Y-140144571D01*
X71453407Y-140144571D02*
X71548645Y-140192190D01*
X71548645Y-140192190D02*
X71596264Y-140239809D01*
X71596264Y-140239809D02*
X71643883Y-140335047D01*
X71643883Y-140335047D02*
X71643883Y-140573142D01*
X71643883Y-140573142D02*
X71596264Y-140668380D01*
X71596264Y-140668380D02*
X71548645Y-140716000D01*
X71548645Y-140716000D02*
X71453407Y-140763619D01*
X71453407Y-140763619D02*
X71215312Y-140763619D01*
X71215312Y-140763619D02*
X71120074Y-140716000D01*
X71120074Y-140716000D02*
X71072455Y-140668380D01*
X71929598Y-139763619D02*
X72262931Y-140763619D01*
X72262931Y-140763619D02*
X72596264Y-139763619D01*
X70789969Y-147840819D02*
X70313779Y-147840819D01*
X70313779Y-147840819D02*
X70266160Y-148317009D01*
X70266160Y-148317009D02*
X70313779Y-148269390D01*
X70313779Y-148269390D02*
X70409017Y-148221771D01*
X70409017Y-148221771D02*
X70647112Y-148221771D01*
X70647112Y-148221771D02*
X70742350Y-148269390D01*
X70742350Y-148269390D02*
X70789969Y-148317009D01*
X70789969Y-148317009D02*
X70837588Y-148412247D01*
X70837588Y-148412247D02*
X70837588Y-148650342D01*
X70837588Y-148650342D02*
X70789969Y-148745580D01*
X70789969Y-148745580D02*
X70742350Y-148793200D01*
X70742350Y-148793200D02*
X70647112Y-148840819D01*
X70647112Y-148840819D02*
X70409017Y-148840819D01*
X70409017Y-148840819D02*
X70313779Y-148793200D01*
X70313779Y-148793200D02*
X70266160Y-148745580D01*
X71123303Y-147840819D02*
X71456636Y-148840819D01*
X71456636Y-148840819D02*
X71789969Y-147840819D01*
X70761388Y-155965638D02*
X70666150Y-155918019D01*
X70666150Y-155918019D02*
X70523293Y-155918019D01*
X70523293Y-155918019D02*
X70380436Y-155965638D01*
X70380436Y-155965638D02*
X70285198Y-156060876D01*
X70285198Y-156060876D02*
X70237579Y-156156114D01*
X70237579Y-156156114D02*
X70189960Y-156346590D01*
X70189960Y-156346590D02*
X70189960Y-156489447D01*
X70189960Y-156489447D02*
X70237579Y-156679923D01*
X70237579Y-156679923D02*
X70285198Y-156775161D01*
X70285198Y-156775161D02*
X70380436Y-156870400D01*
X70380436Y-156870400D02*
X70523293Y-156918019D01*
X70523293Y-156918019D02*
X70618531Y-156918019D01*
X70618531Y-156918019D02*
X70761388Y-156870400D01*
X70761388Y-156870400D02*
X70809007Y-156822780D01*
X70809007Y-156822780D02*
X70809007Y-156489447D01*
X70809007Y-156489447D02*
X70618531Y-156489447D01*
X71237579Y-156918019D02*
X71237579Y-155918019D01*
X71237579Y-155918019D02*
X71809007Y-156918019D01*
X71809007Y-156918019D02*
X71809007Y-155918019D01*
X72285198Y-156918019D02*
X72285198Y-155918019D01*
X72285198Y-155918019D02*
X72523293Y-155918019D01*
X72523293Y-155918019D02*
X72666150Y-155965638D01*
X72666150Y-155965638D02*
X72761388Y-156060876D01*
X72761388Y-156060876D02*
X72809007Y-156156114D01*
X72809007Y-156156114D02*
X72856626Y-156346590D01*
X72856626Y-156346590D02*
X72856626Y-156489447D01*
X72856626Y-156489447D02*
X72809007Y-156679923D01*
X72809007Y-156679923D02*
X72761388Y-156775161D01*
X72761388Y-156775161D02*
X72666150Y-156870400D01*
X72666150Y-156870400D02*
X72523293Y-156918019D01*
X72523293Y-156918019D02*
X72285198Y-156918019D01*
X92135512Y-71650065D02*
X92278369Y-71697684D01*
X92278369Y-71697684D02*
X92325988Y-71745303D01*
X92325988Y-71745303D02*
X92373607Y-71840541D01*
X92373607Y-71840541D02*
X92373607Y-71983398D01*
X92373607Y-71983398D02*
X92325988Y-72078636D01*
X92325988Y-72078636D02*
X92278369Y-72126256D01*
X92278369Y-72126256D02*
X92183131Y-72173875D01*
X92183131Y-72173875D02*
X91802179Y-72173875D01*
X91802179Y-72173875D02*
X91802179Y-71173875D01*
X91802179Y-71173875D02*
X92135512Y-71173875D01*
X92135512Y-71173875D02*
X92230750Y-71221494D01*
X92230750Y-71221494D02*
X92278369Y-71269113D01*
X92278369Y-71269113D02*
X92325988Y-71364351D01*
X92325988Y-71364351D02*
X92325988Y-71459589D01*
X92325988Y-71459589D02*
X92278369Y-71554827D01*
X92278369Y-71554827D02*
X92230750Y-71602446D01*
X92230750Y-71602446D02*
X92135512Y-71650065D01*
X92135512Y-71650065D02*
X91802179Y-71650065D01*
X93183131Y-72126256D02*
X93087893Y-72173875D01*
X93087893Y-72173875D02*
X92897417Y-72173875D01*
X92897417Y-72173875D02*
X92802179Y-72126256D01*
X92802179Y-72126256D02*
X92754560Y-72031017D01*
X92754560Y-72031017D02*
X92754560Y-71650065D01*
X92754560Y-71650065D02*
X92802179Y-71554827D01*
X92802179Y-71554827D02*
X92897417Y-71507208D01*
X92897417Y-71507208D02*
X93087893Y-71507208D01*
X93087893Y-71507208D02*
X93183131Y-71554827D01*
X93183131Y-71554827D02*
X93230750Y-71650065D01*
X93230750Y-71650065D02*
X93230750Y-71745303D01*
X93230750Y-71745303D02*
X92754560Y-71840541D01*
X93516465Y-71507208D02*
X93897417Y-71507208D01*
X93659322Y-72173875D02*
X93659322Y-71316732D01*
X93659322Y-71316732D02*
X93706941Y-71221494D01*
X93706941Y-71221494D02*
X93802179Y-71173875D01*
X93802179Y-71173875D02*
X93897417Y-71173875D01*
X94373608Y-72173875D02*
X94278370Y-72126256D01*
X94278370Y-72126256D02*
X94230751Y-72078636D01*
X94230751Y-72078636D02*
X94183132Y-71983398D01*
X94183132Y-71983398D02*
X94183132Y-71697684D01*
X94183132Y-71697684D02*
X94230751Y-71602446D01*
X94230751Y-71602446D02*
X94278370Y-71554827D01*
X94278370Y-71554827D02*
X94373608Y-71507208D01*
X94373608Y-71507208D02*
X94516465Y-71507208D01*
X94516465Y-71507208D02*
X94611703Y-71554827D01*
X94611703Y-71554827D02*
X94659322Y-71602446D01*
X94659322Y-71602446D02*
X94706941Y-71697684D01*
X94706941Y-71697684D02*
X94706941Y-71983398D01*
X94706941Y-71983398D02*
X94659322Y-72078636D01*
X94659322Y-72078636D02*
X94611703Y-72126256D01*
X94611703Y-72126256D02*
X94516465Y-72173875D01*
X94516465Y-72173875D02*
X94373608Y-72173875D01*
X95135513Y-72173875D02*
X95135513Y-71507208D01*
X95135513Y-71697684D02*
X95183132Y-71602446D01*
X95183132Y-71602446D02*
X95230751Y-71554827D01*
X95230751Y-71554827D02*
X95325989Y-71507208D01*
X95325989Y-71507208D02*
X95421227Y-71507208D01*
X96135513Y-72126256D02*
X96040275Y-72173875D01*
X96040275Y-72173875D02*
X95849799Y-72173875D01*
X95849799Y-72173875D02*
X95754561Y-72126256D01*
X95754561Y-72126256D02*
X95706942Y-72031017D01*
X95706942Y-72031017D02*
X95706942Y-71650065D01*
X95706942Y-71650065D02*
X95754561Y-71554827D01*
X95754561Y-71554827D02*
X95849799Y-71507208D01*
X95849799Y-71507208D02*
X96040275Y-71507208D01*
X96040275Y-71507208D02*
X96135513Y-71554827D01*
X96135513Y-71554827D02*
X96183132Y-71650065D01*
X96183132Y-71650065D02*
X96183132Y-71745303D01*
X96183132Y-71745303D02*
X95706942Y-71840541D01*
X97325990Y-72126256D02*
X97421228Y-72173875D01*
X97421228Y-72173875D02*
X97611704Y-72173875D01*
X97611704Y-72173875D02*
X97706942Y-72126256D01*
X97706942Y-72126256D02*
X97754561Y-72031017D01*
X97754561Y-72031017D02*
X97754561Y-71983398D01*
X97754561Y-71983398D02*
X97706942Y-71888160D01*
X97706942Y-71888160D02*
X97611704Y-71840541D01*
X97611704Y-71840541D02*
X97468847Y-71840541D01*
X97468847Y-71840541D02*
X97373609Y-71792922D01*
X97373609Y-71792922D02*
X97325990Y-71697684D01*
X97325990Y-71697684D02*
X97325990Y-71650065D01*
X97325990Y-71650065D02*
X97373609Y-71554827D01*
X97373609Y-71554827D02*
X97468847Y-71507208D01*
X97468847Y-71507208D02*
X97611704Y-71507208D01*
X97611704Y-71507208D02*
X97706942Y-71554827D01*
X98325990Y-72173875D02*
X98230752Y-72126256D01*
X98230752Y-72126256D02*
X98183133Y-72078636D01*
X98183133Y-72078636D02*
X98135514Y-71983398D01*
X98135514Y-71983398D02*
X98135514Y-71697684D01*
X98135514Y-71697684D02*
X98183133Y-71602446D01*
X98183133Y-71602446D02*
X98230752Y-71554827D01*
X98230752Y-71554827D02*
X98325990Y-71507208D01*
X98325990Y-71507208D02*
X98468847Y-71507208D01*
X98468847Y-71507208D02*
X98564085Y-71554827D01*
X98564085Y-71554827D02*
X98611704Y-71602446D01*
X98611704Y-71602446D02*
X98659323Y-71697684D01*
X98659323Y-71697684D02*
X98659323Y-71983398D01*
X98659323Y-71983398D02*
X98611704Y-72078636D01*
X98611704Y-72078636D02*
X98564085Y-72126256D01*
X98564085Y-72126256D02*
X98468847Y-72173875D01*
X98468847Y-72173875D02*
X98325990Y-72173875D01*
X99230752Y-72173875D02*
X99135514Y-72126256D01*
X99135514Y-72126256D02*
X99087895Y-72031017D01*
X99087895Y-72031017D02*
X99087895Y-71173875D01*
X100040276Y-72173875D02*
X100040276Y-71173875D01*
X100040276Y-72126256D02*
X99945038Y-72173875D01*
X99945038Y-72173875D02*
X99754562Y-72173875D01*
X99754562Y-72173875D02*
X99659324Y-72126256D01*
X99659324Y-72126256D02*
X99611705Y-72078636D01*
X99611705Y-72078636D02*
X99564086Y-71983398D01*
X99564086Y-71983398D02*
X99564086Y-71697684D01*
X99564086Y-71697684D02*
X99611705Y-71602446D01*
X99611705Y-71602446D02*
X99659324Y-71554827D01*
X99659324Y-71554827D02*
X99754562Y-71507208D01*
X99754562Y-71507208D02*
X99945038Y-71507208D01*
X99945038Y-71507208D02*
X100040276Y-71554827D01*
X100897419Y-72126256D02*
X100802181Y-72173875D01*
X100802181Y-72173875D02*
X100611705Y-72173875D01*
X100611705Y-72173875D02*
X100516467Y-72126256D01*
X100516467Y-72126256D02*
X100468848Y-72031017D01*
X100468848Y-72031017D02*
X100468848Y-71650065D01*
X100468848Y-71650065D02*
X100516467Y-71554827D01*
X100516467Y-71554827D02*
X100611705Y-71507208D01*
X100611705Y-71507208D02*
X100802181Y-71507208D01*
X100802181Y-71507208D02*
X100897419Y-71554827D01*
X100897419Y-71554827D02*
X100945038Y-71650065D01*
X100945038Y-71650065D02*
X100945038Y-71745303D01*
X100945038Y-71745303D02*
X100468848Y-71840541D01*
X101373610Y-72173875D02*
X101373610Y-71507208D01*
X101373610Y-71697684D02*
X101421229Y-71602446D01*
X101421229Y-71602446D02*
X101468848Y-71554827D01*
X101468848Y-71554827D02*
X101564086Y-71507208D01*
X101564086Y-71507208D02*
X101659324Y-71507208D01*
X101992658Y-72173875D02*
X101992658Y-71507208D01*
X101992658Y-71173875D02*
X101945039Y-71221494D01*
X101945039Y-71221494D02*
X101992658Y-71269113D01*
X101992658Y-71269113D02*
X102040277Y-71221494D01*
X102040277Y-71221494D02*
X101992658Y-71173875D01*
X101992658Y-71173875D02*
X101992658Y-71269113D01*
X102468848Y-71507208D02*
X102468848Y-72173875D01*
X102468848Y-71602446D02*
X102516467Y-71554827D01*
X102516467Y-71554827D02*
X102611705Y-71507208D01*
X102611705Y-71507208D02*
X102754562Y-71507208D01*
X102754562Y-71507208D02*
X102849800Y-71554827D01*
X102849800Y-71554827D02*
X102897419Y-71650065D01*
X102897419Y-71650065D02*
X102897419Y-72173875D01*
X103802181Y-71507208D02*
X103802181Y-72316732D01*
X103802181Y-72316732D02*
X103754562Y-72411970D01*
X103754562Y-72411970D02*
X103706943Y-72459589D01*
X103706943Y-72459589D02*
X103611705Y-72507208D01*
X103611705Y-72507208D02*
X103468848Y-72507208D01*
X103468848Y-72507208D02*
X103373610Y-72459589D01*
X103802181Y-72126256D02*
X103706943Y-72173875D01*
X103706943Y-72173875D02*
X103516467Y-72173875D01*
X103516467Y-72173875D02*
X103421229Y-72126256D01*
X103421229Y-72126256D02*
X103373610Y-72078636D01*
X103373610Y-72078636D02*
X103325991Y-71983398D01*
X103325991Y-71983398D02*
X103325991Y-71697684D01*
X103325991Y-71697684D02*
X103373610Y-71602446D01*
X103373610Y-71602446D02*
X103421229Y-71554827D01*
X103421229Y-71554827D02*
X103516467Y-71507208D01*
X103516467Y-71507208D02*
X103706943Y-71507208D01*
X103706943Y-71507208D02*
X103802181Y-71554827D01*
X105040277Y-72173875D02*
X105040277Y-71507208D01*
X105040277Y-71173875D02*
X104992658Y-71221494D01*
X104992658Y-71221494D02*
X105040277Y-71269113D01*
X105040277Y-71269113D02*
X105087896Y-71221494D01*
X105087896Y-71221494D02*
X105040277Y-71173875D01*
X105040277Y-71173875D02*
X105040277Y-71269113D01*
X105516467Y-71507208D02*
X105516467Y-72173875D01*
X105516467Y-71602446D02*
X105564086Y-71554827D01*
X105564086Y-71554827D02*
X105659324Y-71507208D01*
X105659324Y-71507208D02*
X105802181Y-71507208D01*
X105802181Y-71507208D02*
X105897419Y-71554827D01*
X105897419Y-71554827D02*
X105945038Y-71650065D01*
X105945038Y-71650065D02*
X105945038Y-72173875D01*
X107183134Y-72173875D02*
X107183134Y-71173875D01*
X107278372Y-71792922D02*
X107564086Y-72173875D01*
X107564086Y-71507208D02*
X107183134Y-71888160D01*
X107992658Y-72173875D02*
X107992658Y-71507208D01*
X107992658Y-71173875D02*
X107945039Y-71221494D01*
X107945039Y-71221494D02*
X107992658Y-71269113D01*
X107992658Y-71269113D02*
X108040277Y-71221494D01*
X108040277Y-71221494D02*
X107992658Y-71173875D01*
X107992658Y-71173875D02*
X107992658Y-71269113D01*
X108897419Y-72126256D02*
X108802181Y-72173875D01*
X108802181Y-72173875D02*
X108611705Y-72173875D01*
X108611705Y-72173875D02*
X108516467Y-72126256D01*
X108516467Y-72126256D02*
X108468848Y-72078636D01*
X108468848Y-72078636D02*
X108421229Y-71983398D01*
X108421229Y-71983398D02*
X108421229Y-71697684D01*
X108421229Y-71697684D02*
X108468848Y-71602446D01*
X108468848Y-71602446D02*
X108516467Y-71554827D01*
X108516467Y-71554827D02*
X108611705Y-71507208D01*
X108611705Y-71507208D02*
X108802181Y-71507208D01*
X108802181Y-71507208D02*
X108897419Y-71554827D01*
X109325991Y-72173875D02*
X109325991Y-71173875D01*
X109421229Y-71792922D02*
X109706943Y-72173875D01*
X109706943Y-71507208D02*
X109325991Y-71888160D01*
X110897420Y-72173875D02*
X110897420Y-71173875D01*
X111325991Y-72173875D02*
X111325991Y-71650065D01*
X111325991Y-71650065D02*
X111278372Y-71554827D01*
X111278372Y-71554827D02*
X111183134Y-71507208D01*
X111183134Y-71507208D02*
X111040277Y-71507208D01*
X111040277Y-71507208D02*
X110945039Y-71554827D01*
X110945039Y-71554827D02*
X110897420Y-71602446D01*
X112230753Y-72173875D02*
X112230753Y-71650065D01*
X112230753Y-71650065D02*
X112183134Y-71554827D01*
X112183134Y-71554827D02*
X112087896Y-71507208D01*
X112087896Y-71507208D02*
X111897420Y-71507208D01*
X111897420Y-71507208D02*
X111802182Y-71554827D01*
X112230753Y-72126256D02*
X112135515Y-72173875D01*
X112135515Y-72173875D02*
X111897420Y-72173875D01*
X111897420Y-72173875D02*
X111802182Y-72126256D01*
X111802182Y-72126256D02*
X111754563Y-72031017D01*
X111754563Y-72031017D02*
X111754563Y-71935779D01*
X111754563Y-71935779D02*
X111802182Y-71840541D01*
X111802182Y-71840541D02*
X111897420Y-71792922D01*
X111897420Y-71792922D02*
X112135515Y-71792922D01*
X112135515Y-71792922D02*
X112230753Y-71745303D01*
X112706944Y-72173875D02*
X112706944Y-71507208D01*
X112706944Y-71697684D02*
X112754563Y-71602446D01*
X112754563Y-71602446D02*
X112802182Y-71554827D01*
X112802182Y-71554827D02*
X112897420Y-71507208D01*
X112897420Y-71507208D02*
X112992658Y-71507208D01*
X113325992Y-71507208D02*
X113325992Y-72173875D01*
X113325992Y-71602446D02*
X113373611Y-71554827D01*
X113373611Y-71554827D02*
X113468849Y-71507208D01*
X113468849Y-71507208D02*
X113611706Y-71507208D01*
X113611706Y-71507208D02*
X113706944Y-71554827D01*
X113706944Y-71554827D02*
X113754563Y-71650065D01*
X113754563Y-71650065D02*
X113754563Y-72173875D01*
X114611706Y-72126256D02*
X114516468Y-72173875D01*
X114516468Y-72173875D02*
X114325992Y-72173875D01*
X114325992Y-72173875D02*
X114230754Y-72126256D01*
X114230754Y-72126256D02*
X114183135Y-72031017D01*
X114183135Y-72031017D02*
X114183135Y-71650065D01*
X114183135Y-71650065D02*
X114230754Y-71554827D01*
X114230754Y-71554827D02*
X114325992Y-71507208D01*
X114325992Y-71507208D02*
X114516468Y-71507208D01*
X114516468Y-71507208D02*
X114611706Y-71554827D01*
X114611706Y-71554827D02*
X114659325Y-71650065D01*
X114659325Y-71650065D02*
X114659325Y-71745303D01*
X114659325Y-71745303D02*
X114183135Y-71840541D01*
X115040278Y-72126256D02*
X115135516Y-72173875D01*
X115135516Y-72173875D02*
X115325992Y-72173875D01*
X115325992Y-72173875D02*
X115421230Y-72126256D01*
X115421230Y-72126256D02*
X115468849Y-72031017D01*
X115468849Y-72031017D02*
X115468849Y-71983398D01*
X115468849Y-71983398D02*
X115421230Y-71888160D01*
X115421230Y-71888160D02*
X115325992Y-71840541D01*
X115325992Y-71840541D02*
X115183135Y-71840541D01*
X115183135Y-71840541D02*
X115087897Y-71792922D01*
X115087897Y-71792922D02*
X115040278Y-71697684D01*
X115040278Y-71697684D02*
X115040278Y-71650065D01*
X115040278Y-71650065D02*
X115087897Y-71554827D01*
X115087897Y-71554827D02*
X115183135Y-71507208D01*
X115183135Y-71507208D02*
X115325992Y-71507208D01*
X115325992Y-71507208D02*
X115421230Y-71554827D01*
X115849802Y-72126256D02*
X115945040Y-72173875D01*
X115945040Y-72173875D02*
X116135516Y-72173875D01*
X116135516Y-72173875D02*
X116230754Y-72126256D01*
X116230754Y-72126256D02*
X116278373Y-72031017D01*
X116278373Y-72031017D02*
X116278373Y-71983398D01*
X116278373Y-71983398D02*
X116230754Y-71888160D01*
X116230754Y-71888160D02*
X116135516Y-71840541D01*
X116135516Y-71840541D02*
X115992659Y-71840541D01*
X115992659Y-71840541D02*
X115897421Y-71792922D01*
X115897421Y-71792922D02*
X115849802Y-71697684D01*
X115849802Y-71697684D02*
X115849802Y-71650065D01*
X115849802Y-71650065D02*
X115897421Y-71554827D01*
X115897421Y-71554827D02*
X115992659Y-71507208D01*
X115992659Y-71507208D02*
X116135516Y-71507208D01*
X116135516Y-71507208D02*
X116230754Y-71554827D01*
X117897421Y-72126256D02*
X117802183Y-72173875D01*
X117802183Y-72173875D02*
X117611707Y-72173875D01*
X117611707Y-72173875D02*
X117516469Y-72126256D01*
X117516469Y-72126256D02*
X117468850Y-72078636D01*
X117468850Y-72078636D02*
X117421231Y-71983398D01*
X117421231Y-71983398D02*
X117421231Y-71697684D01*
X117421231Y-71697684D02*
X117468850Y-71602446D01*
X117468850Y-71602446D02*
X117516469Y-71554827D01*
X117516469Y-71554827D02*
X117611707Y-71507208D01*
X117611707Y-71507208D02*
X117802183Y-71507208D01*
X117802183Y-71507208D02*
X117897421Y-71554827D01*
X118468850Y-72173875D02*
X118373612Y-72126256D01*
X118373612Y-72126256D02*
X118325993Y-72078636D01*
X118325993Y-72078636D02*
X118278374Y-71983398D01*
X118278374Y-71983398D02*
X118278374Y-71697684D01*
X118278374Y-71697684D02*
X118325993Y-71602446D01*
X118325993Y-71602446D02*
X118373612Y-71554827D01*
X118373612Y-71554827D02*
X118468850Y-71507208D01*
X118468850Y-71507208D02*
X118611707Y-71507208D01*
X118611707Y-71507208D02*
X118706945Y-71554827D01*
X118706945Y-71554827D02*
X118754564Y-71602446D01*
X118754564Y-71602446D02*
X118802183Y-71697684D01*
X118802183Y-71697684D02*
X118802183Y-71983398D01*
X118802183Y-71983398D02*
X118754564Y-72078636D01*
X118754564Y-72078636D02*
X118706945Y-72126256D01*
X118706945Y-72126256D02*
X118611707Y-72173875D01*
X118611707Y-72173875D02*
X118468850Y-72173875D01*
X119230755Y-71507208D02*
X119230755Y-72173875D01*
X119230755Y-71602446D02*
X119278374Y-71554827D01*
X119278374Y-71554827D02*
X119373612Y-71507208D01*
X119373612Y-71507208D02*
X119516469Y-71507208D01*
X119516469Y-71507208D02*
X119611707Y-71554827D01*
X119611707Y-71554827D02*
X119659326Y-71650065D01*
X119659326Y-71650065D02*
X119659326Y-72173875D01*
X120135517Y-71507208D02*
X120135517Y-72173875D01*
X120135517Y-71602446D02*
X120183136Y-71554827D01*
X120183136Y-71554827D02*
X120278374Y-71507208D01*
X120278374Y-71507208D02*
X120421231Y-71507208D01*
X120421231Y-71507208D02*
X120516469Y-71554827D01*
X120516469Y-71554827D02*
X120564088Y-71650065D01*
X120564088Y-71650065D02*
X120564088Y-72173875D01*
X121421231Y-72126256D02*
X121325993Y-72173875D01*
X121325993Y-72173875D02*
X121135517Y-72173875D01*
X121135517Y-72173875D02*
X121040279Y-72126256D01*
X121040279Y-72126256D02*
X120992660Y-72031017D01*
X120992660Y-72031017D02*
X120992660Y-71650065D01*
X120992660Y-71650065D02*
X121040279Y-71554827D01*
X121040279Y-71554827D02*
X121135517Y-71507208D01*
X121135517Y-71507208D02*
X121325993Y-71507208D01*
X121325993Y-71507208D02*
X121421231Y-71554827D01*
X121421231Y-71554827D02*
X121468850Y-71650065D01*
X121468850Y-71650065D02*
X121468850Y-71745303D01*
X121468850Y-71745303D02*
X120992660Y-71840541D01*
X122325993Y-72126256D02*
X122230755Y-72173875D01*
X122230755Y-72173875D02*
X122040279Y-72173875D01*
X122040279Y-72173875D02*
X121945041Y-72126256D01*
X121945041Y-72126256D02*
X121897422Y-72078636D01*
X121897422Y-72078636D02*
X121849803Y-71983398D01*
X121849803Y-71983398D02*
X121849803Y-71697684D01*
X121849803Y-71697684D02*
X121897422Y-71602446D01*
X121897422Y-71602446D02*
X121945041Y-71554827D01*
X121945041Y-71554827D02*
X122040279Y-71507208D01*
X122040279Y-71507208D02*
X122230755Y-71507208D01*
X122230755Y-71507208D02*
X122325993Y-71554827D01*
X122611708Y-71507208D02*
X122992660Y-71507208D01*
X122754565Y-71173875D02*
X122754565Y-72031017D01*
X122754565Y-72031017D02*
X122802184Y-72126256D01*
X122802184Y-72126256D02*
X122897422Y-72173875D01*
X122897422Y-72173875D02*
X122992660Y-72173875D01*
X123468851Y-72173875D02*
X123373613Y-72126256D01*
X123373613Y-72126256D02*
X123325994Y-72078636D01*
X123325994Y-72078636D02*
X123278375Y-71983398D01*
X123278375Y-71983398D02*
X123278375Y-71697684D01*
X123278375Y-71697684D02*
X123325994Y-71602446D01*
X123325994Y-71602446D02*
X123373613Y-71554827D01*
X123373613Y-71554827D02*
X123468851Y-71507208D01*
X123468851Y-71507208D02*
X123611708Y-71507208D01*
X123611708Y-71507208D02*
X123706946Y-71554827D01*
X123706946Y-71554827D02*
X123754565Y-71602446D01*
X123754565Y-71602446D02*
X123802184Y-71697684D01*
X123802184Y-71697684D02*
X123802184Y-71983398D01*
X123802184Y-71983398D02*
X123754565Y-72078636D01*
X123754565Y-72078636D02*
X123706946Y-72126256D01*
X123706946Y-72126256D02*
X123611708Y-72173875D01*
X123611708Y-72173875D02*
X123468851Y-72173875D01*
X124230756Y-72173875D02*
X124230756Y-71507208D01*
X124230756Y-71697684D02*
X124278375Y-71602446D01*
X124278375Y-71602446D02*
X124325994Y-71554827D01*
X124325994Y-71554827D02*
X124421232Y-71507208D01*
X124421232Y-71507208D02*
X124516470Y-71507208D01*
X124802185Y-72126256D02*
X124897423Y-72173875D01*
X124897423Y-72173875D02*
X125087899Y-72173875D01*
X125087899Y-72173875D02*
X125183137Y-72126256D01*
X125183137Y-72126256D02*
X125230756Y-72031017D01*
X125230756Y-72031017D02*
X125230756Y-71983398D01*
X125230756Y-71983398D02*
X125183137Y-71888160D01*
X125183137Y-71888160D02*
X125087899Y-71840541D01*
X125087899Y-71840541D02*
X124945042Y-71840541D01*
X124945042Y-71840541D02*
X124849804Y-71792922D01*
X124849804Y-71792922D02*
X124802185Y-71697684D01*
X124802185Y-71697684D02*
X124802185Y-71650065D01*
X124802185Y-71650065D02*
X124849804Y-71554827D01*
X124849804Y-71554827D02*
X124945042Y-71507208D01*
X124945042Y-71507208D02*
X125087899Y-71507208D01*
X125087899Y-71507208D02*
X125183137Y-71554827D01*
X125706947Y-72126256D02*
X125706947Y-72173875D01*
X125706947Y-72173875D02*
X125659328Y-72269113D01*
X125659328Y-72269113D02*
X125611709Y-72316732D01*
X92230750Y-73783819D02*
X92230750Y-72783819D01*
X92230750Y-73736200D02*
X92135512Y-73783819D01*
X92135512Y-73783819D02*
X91945036Y-73783819D01*
X91945036Y-73783819D02*
X91849798Y-73736200D01*
X91849798Y-73736200D02*
X91802179Y-73688580D01*
X91802179Y-73688580D02*
X91754560Y-73593342D01*
X91754560Y-73593342D02*
X91754560Y-73307628D01*
X91754560Y-73307628D02*
X91802179Y-73212390D01*
X91802179Y-73212390D02*
X91849798Y-73164771D01*
X91849798Y-73164771D02*
X91945036Y-73117152D01*
X91945036Y-73117152D02*
X92135512Y-73117152D01*
X92135512Y-73117152D02*
X92230750Y-73164771D01*
X92849798Y-73783819D02*
X92754560Y-73736200D01*
X92754560Y-73736200D02*
X92706941Y-73688580D01*
X92706941Y-73688580D02*
X92659322Y-73593342D01*
X92659322Y-73593342D02*
X92659322Y-73307628D01*
X92659322Y-73307628D02*
X92706941Y-73212390D01*
X92706941Y-73212390D02*
X92754560Y-73164771D01*
X92754560Y-73164771D02*
X92849798Y-73117152D01*
X92849798Y-73117152D02*
X92992655Y-73117152D01*
X92992655Y-73117152D02*
X93087893Y-73164771D01*
X93087893Y-73164771D02*
X93135512Y-73212390D01*
X93135512Y-73212390D02*
X93183131Y-73307628D01*
X93183131Y-73307628D02*
X93183131Y-73593342D01*
X93183131Y-73593342D02*
X93135512Y-73688580D01*
X93135512Y-73688580D02*
X93087893Y-73736200D01*
X93087893Y-73736200D02*
X92992655Y-73783819D01*
X92992655Y-73783819D02*
X92849798Y-73783819D01*
X94040274Y-73117152D02*
X94040274Y-73783819D01*
X93611703Y-73117152D02*
X93611703Y-73640961D01*
X93611703Y-73640961D02*
X93659322Y-73736200D01*
X93659322Y-73736200D02*
X93754560Y-73783819D01*
X93754560Y-73783819D02*
X93897417Y-73783819D01*
X93897417Y-73783819D02*
X93992655Y-73736200D01*
X93992655Y-73736200D02*
X94040274Y-73688580D01*
X94516465Y-73783819D02*
X94516465Y-72783819D01*
X94516465Y-73164771D02*
X94611703Y-73117152D01*
X94611703Y-73117152D02*
X94802179Y-73117152D01*
X94802179Y-73117152D02*
X94897417Y-73164771D01*
X94897417Y-73164771D02*
X94945036Y-73212390D01*
X94945036Y-73212390D02*
X94992655Y-73307628D01*
X94992655Y-73307628D02*
X94992655Y-73593342D01*
X94992655Y-73593342D02*
X94945036Y-73688580D01*
X94945036Y-73688580D02*
X94897417Y-73736200D01*
X94897417Y-73736200D02*
X94802179Y-73783819D01*
X94802179Y-73783819D02*
X94611703Y-73783819D01*
X94611703Y-73783819D02*
X94516465Y-73736200D01*
X95564084Y-73783819D02*
X95468846Y-73736200D01*
X95468846Y-73736200D02*
X95421227Y-73640961D01*
X95421227Y-73640961D02*
X95421227Y-72783819D01*
X96325989Y-73736200D02*
X96230751Y-73783819D01*
X96230751Y-73783819D02*
X96040275Y-73783819D01*
X96040275Y-73783819D02*
X95945037Y-73736200D01*
X95945037Y-73736200D02*
X95897418Y-73640961D01*
X95897418Y-73640961D02*
X95897418Y-73260009D01*
X95897418Y-73260009D02*
X95945037Y-73164771D01*
X95945037Y-73164771D02*
X96040275Y-73117152D01*
X96040275Y-73117152D02*
X96230751Y-73117152D01*
X96230751Y-73117152D02*
X96325989Y-73164771D01*
X96325989Y-73164771D02*
X96373608Y-73260009D01*
X96373608Y-73260009D02*
X96373608Y-73355247D01*
X96373608Y-73355247D02*
X95897418Y-73450485D01*
X96802180Y-73402866D02*
X97564085Y-73402866D01*
X98468846Y-73736200D02*
X98373608Y-73783819D01*
X98373608Y-73783819D02*
X98183132Y-73783819D01*
X98183132Y-73783819D02*
X98087894Y-73736200D01*
X98087894Y-73736200D02*
X98040275Y-73688580D01*
X98040275Y-73688580D02*
X97992656Y-73593342D01*
X97992656Y-73593342D02*
X97992656Y-73307628D01*
X97992656Y-73307628D02*
X98040275Y-73212390D01*
X98040275Y-73212390D02*
X98087894Y-73164771D01*
X98087894Y-73164771D02*
X98183132Y-73117152D01*
X98183132Y-73117152D02*
X98373608Y-73117152D01*
X98373608Y-73117152D02*
X98468846Y-73164771D01*
X98897418Y-73783819D02*
X98897418Y-72783819D01*
X99325989Y-73783819D02*
X99325989Y-73260009D01*
X99325989Y-73260009D02*
X99278370Y-73164771D01*
X99278370Y-73164771D02*
X99183132Y-73117152D01*
X99183132Y-73117152D02*
X99040275Y-73117152D01*
X99040275Y-73117152D02*
X98945037Y-73164771D01*
X98945037Y-73164771D02*
X98897418Y-73212390D01*
X100183132Y-73736200D02*
X100087894Y-73783819D01*
X100087894Y-73783819D02*
X99897418Y-73783819D01*
X99897418Y-73783819D02*
X99802180Y-73736200D01*
X99802180Y-73736200D02*
X99754561Y-73640961D01*
X99754561Y-73640961D02*
X99754561Y-73260009D01*
X99754561Y-73260009D02*
X99802180Y-73164771D01*
X99802180Y-73164771D02*
X99897418Y-73117152D01*
X99897418Y-73117152D02*
X100087894Y-73117152D01*
X100087894Y-73117152D02*
X100183132Y-73164771D01*
X100183132Y-73164771D02*
X100230751Y-73260009D01*
X100230751Y-73260009D02*
X100230751Y-73355247D01*
X100230751Y-73355247D02*
X99754561Y-73450485D01*
X101087894Y-73736200D02*
X100992656Y-73783819D01*
X100992656Y-73783819D02*
X100802180Y-73783819D01*
X100802180Y-73783819D02*
X100706942Y-73736200D01*
X100706942Y-73736200D02*
X100659323Y-73688580D01*
X100659323Y-73688580D02*
X100611704Y-73593342D01*
X100611704Y-73593342D02*
X100611704Y-73307628D01*
X100611704Y-73307628D02*
X100659323Y-73212390D01*
X100659323Y-73212390D02*
X100706942Y-73164771D01*
X100706942Y-73164771D02*
X100802180Y-73117152D01*
X100802180Y-73117152D02*
X100992656Y-73117152D01*
X100992656Y-73117152D02*
X101087894Y-73164771D01*
X101516466Y-73783819D02*
X101516466Y-72783819D01*
X101611704Y-73402866D02*
X101897418Y-73783819D01*
X101897418Y-73117152D02*
X101516466Y-73498104D01*
X103230752Y-73783819D02*
X103135514Y-73736200D01*
X103135514Y-73736200D02*
X103087895Y-73688580D01*
X103087895Y-73688580D02*
X103040276Y-73593342D01*
X103040276Y-73593342D02*
X103040276Y-73307628D01*
X103040276Y-73307628D02*
X103087895Y-73212390D01*
X103087895Y-73212390D02*
X103135514Y-73164771D01*
X103135514Y-73164771D02*
X103230752Y-73117152D01*
X103230752Y-73117152D02*
X103373609Y-73117152D01*
X103373609Y-73117152D02*
X103468847Y-73164771D01*
X103468847Y-73164771D02*
X103516466Y-73212390D01*
X103516466Y-73212390D02*
X103564085Y-73307628D01*
X103564085Y-73307628D02*
X103564085Y-73593342D01*
X103564085Y-73593342D02*
X103516466Y-73688580D01*
X103516466Y-73688580D02*
X103468847Y-73736200D01*
X103468847Y-73736200D02*
X103373609Y-73783819D01*
X103373609Y-73783819D02*
X103230752Y-73783819D01*
X103992657Y-73783819D02*
X103992657Y-73117152D01*
X103992657Y-73307628D02*
X104040276Y-73212390D01*
X104040276Y-73212390D02*
X104087895Y-73164771D01*
X104087895Y-73164771D02*
X104183133Y-73117152D01*
X104183133Y-73117152D02*
X104278371Y-73117152D01*
X104611705Y-73783819D02*
X104611705Y-73117152D01*
X104611705Y-72783819D02*
X104564086Y-72831438D01*
X104564086Y-72831438D02*
X104611705Y-72879057D01*
X104611705Y-72879057D02*
X104659324Y-72831438D01*
X104659324Y-72831438D02*
X104611705Y-72783819D01*
X104611705Y-72783819D02*
X104611705Y-72879057D01*
X105468847Y-73736200D02*
X105373609Y-73783819D01*
X105373609Y-73783819D02*
X105183133Y-73783819D01*
X105183133Y-73783819D02*
X105087895Y-73736200D01*
X105087895Y-73736200D02*
X105040276Y-73640961D01*
X105040276Y-73640961D02*
X105040276Y-73260009D01*
X105040276Y-73260009D02*
X105087895Y-73164771D01*
X105087895Y-73164771D02*
X105183133Y-73117152D01*
X105183133Y-73117152D02*
X105373609Y-73117152D01*
X105373609Y-73117152D02*
X105468847Y-73164771D01*
X105468847Y-73164771D02*
X105516466Y-73260009D01*
X105516466Y-73260009D02*
X105516466Y-73355247D01*
X105516466Y-73355247D02*
X105040276Y-73450485D01*
X105945038Y-73117152D02*
X105945038Y-73783819D01*
X105945038Y-73212390D02*
X105992657Y-73164771D01*
X105992657Y-73164771D02*
X106087895Y-73117152D01*
X106087895Y-73117152D02*
X106230752Y-73117152D01*
X106230752Y-73117152D02*
X106325990Y-73164771D01*
X106325990Y-73164771D02*
X106373609Y-73260009D01*
X106373609Y-73260009D02*
X106373609Y-73783819D01*
X106706943Y-73117152D02*
X107087895Y-73117152D01*
X106849800Y-72783819D02*
X106849800Y-73640961D01*
X106849800Y-73640961D02*
X106897419Y-73736200D01*
X106897419Y-73736200D02*
X106992657Y-73783819D01*
X106992657Y-73783819D02*
X107087895Y-73783819D01*
X107849800Y-73783819D02*
X107849800Y-73260009D01*
X107849800Y-73260009D02*
X107802181Y-73164771D01*
X107802181Y-73164771D02*
X107706943Y-73117152D01*
X107706943Y-73117152D02*
X107516467Y-73117152D01*
X107516467Y-73117152D02*
X107421229Y-73164771D01*
X107849800Y-73736200D02*
X107754562Y-73783819D01*
X107754562Y-73783819D02*
X107516467Y-73783819D01*
X107516467Y-73783819D02*
X107421229Y-73736200D01*
X107421229Y-73736200D02*
X107373610Y-73640961D01*
X107373610Y-73640961D02*
X107373610Y-73545723D01*
X107373610Y-73545723D02*
X107421229Y-73450485D01*
X107421229Y-73450485D02*
X107516467Y-73402866D01*
X107516467Y-73402866D02*
X107754562Y-73402866D01*
X107754562Y-73402866D02*
X107849800Y-73355247D01*
X108183134Y-73117152D02*
X108564086Y-73117152D01*
X108325991Y-72783819D02*
X108325991Y-73640961D01*
X108325991Y-73640961D02*
X108373610Y-73736200D01*
X108373610Y-73736200D02*
X108468848Y-73783819D01*
X108468848Y-73783819D02*
X108564086Y-73783819D01*
X108897420Y-73783819D02*
X108897420Y-73117152D01*
X108897420Y-72783819D02*
X108849801Y-72831438D01*
X108849801Y-72831438D02*
X108897420Y-72879057D01*
X108897420Y-72879057D02*
X108945039Y-72831438D01*
X108945039Y-72831438D02*
X108897420Y-72783819D01*
X108897420Y-72783819D02*
X108897420Y-72879057D01*
X109516467Y-73783819D02*
X109421229Y-73736200D01*
X109421229Y-73736200D02*
X109373610Y-73688580D01*
X109373610Y-73688580D02*
X109325991Y-73593342D01*
X109325991Y-73593342D02*
X109325991Y-73307628D01*
X109325991Y-73307628D02*
X109373610Y-73212390D01*
X109373610Y-73212390D02*
X109421229Y-73164771D01*
X109421229Y-73164771D02*
X109516467Y-73117152D01*
X109516467Y-73117152D02*
X109659324Y-73117152D01*
X109659324Y-73117152D02*
X109754562Y-73164771D01*
X109754562Y-73164771D02*
X109802181Y-73212390D01*
X109802181Y-73212390D02*
X109849800Y-73307628D01*
X109849800Y-73307628D02*
X109849800Y-73593342D01*
X109849800Y-73593342D02*
X109802181Y-73688580D01*
X109802181Y-73688580D02*
X109754562Y-73736200D01*
X109754562Y-73736200D02*
X109659324Y-73783819D01*
X109659324Y-73783819D02*
X109516467Y-73783819D01*
X110278372Y-73117152D02*
X110278372Y-73783819D01*
X110278372Y-73212390D02*
X110325991Y-73164771D01*
X110325991Y-73164771D02*
X110421229Y-73117152D01*
X110421229Y-73117152D02*
X110564086Y-73117152D01*
X110564086Y-73117152D02*
X110659324Y-73164771D01*
X110659324Y-73164771D02*
X110706943Y-73260009D01*
X110706943Y-73260009D02*
X110706943Y-73783819D01*
X92417190Y-68507780D02*
X92369571Y-68555400D01*
X92369571Y-68555400D02*
X92226714Y-68603019D01*
X92226714Y-68603019D02*
X92131476Y-68603019D01*
X92131476Y-68603019D02*
X91988619Y-68555400D01*
X91988619Y-68555400D02*
X91893381Y-68460161D01*
X91893381Y-68460161D02*
X91845762Y-68364923D01*
X91845762Y-68364923D02*
X91798143Y-68174447D01*
X91798143Y-68174447D02*
X91798143Y-68031590D01*
X91798143Y-68031590D02*
X91845762Y-67841114D01*
X91845762Y-67841114D02*
X91893381Y-67745876D01*
X91893381Y-67745876D02*
X91988619Y-67650638D01*
X91988619Y-67650638D02*
X92131476Y-67603019D01*
X92131476Y-67603019D02*
X92226714Y-67603019D01*
X92226714Y-67603019D02*
X92369571Y-67650638D01*
X92369571Y-67650638D02*
X92417190Y-67698257D01*
X92845762Y-68603019D02*
X92845762Y-67603019D01*
X92845762Y-67603019D02*
X93226714Y-67603019D01*
X93226714Y-67603019D02*
X93321952Y-67650638D01*
X93321952Y-67650638D02*
X93369571Y-67698257D01*
X93369571Y-67698257D02*
X93417190Y-67793495D01*
X93417190Y-67793495D02*
X93417190Y-67936352D01*
X93417190Y-67936352D02*
X93369571Y-68031590D01*
X93369571Y-68031590D02*
X93321952Y-68079209D01*
X93321952Y-68079209D02*
X93226714Y-68126828D01*
X93226714Y-68126828D02*
X92845762Y-68126828D01*
X93798143Y-68555400D02*
X93941000Y-68603019D01*
X93941000Y-68603019D02*
X94179095Y-68603019D01*
X94179095Y-68603019D02*
X94274333Y-68555400D01*
X94274333Y-68555400D02*
X94321952Y-68507780D01*
X94321952Y-68507780D02*
X94369571Y-68412542D01*
X94369571Y-68412542D02*
X94369571Y-68317304D01*
X94369571Y-68317304D02*
X94321952Y-68222066D01*
X94321952Y-68222066D02*
X94274333Y-68174447D01*
X94274333Y-68174447D02*
X94179095Y-68126828D01*
X94179095Y-68126828D02*
X93988619Y-68079209D01*
X93988619Y-68079209D02*
X93893381Y-68031590D01*
X93893381Y-68031590D02*
X93845762Y-67983971D01*
X93845762Y-67983971D02*
X93798143Y-67888733D01*
X93798143Y-67888733D02*
X93798143Y-67793495D01*
X93798143Y-67793495D02*
X93845762Y-67698257D01*
X93845762Y-67698257D02*
X93893381Y-67650638D01*
X93893381Y-67650638D02*
X93988619Y-67603019D01*
X93988619Y-67603019D02*
X94226714Y-67603019D01*
X94226714Y-67603019D02*
X94369571Y-67650638D01*
X94750524Y-67698257D02*
X94798143Y-67650638D01*
X94798143Y-67650638D02*
X94893381Y-67603019D01*
X94893381Y-67603019D02*
X95131476Y-67603019D01*
X95131476Y-67603019D02*
X95226714Y-67650638D01*
X95226714Y-67650638D02*
X95274333Y-67698257D01*
X95274333Y-67698257D02*
X95321952Y-67793495D01*
X95321952Y-67793495D02*
X95321952Y-67888733D01*
X95321952Y-67888733D02*
X95274333Y-68031590D01*
X95274333Y-68031590D02*
X94702905Y-68603019D01*
X94702905Y-68603019D02*
X95321952Y-68603019D01*
X96512429Y-68603019D02*
X96512429Y-67603019D01*
X97083857Y-68603019D02*
X96655286Y-68031590D01*
X97083857Y-67603019D02*
X96512429Y-68174447D01*
X97512429Y-68603019D02*
X97512429Y-67603019D01*
X98560047Y-68507780D02*
X98512428Y-68555400D01*
X98512428Y-68555400D02*
X98369571Y-68603019D01*
X98369571Y-68603019D02*
X98274333Y-68603019D01*
X98274333Y-68603019D02*
X98131476Y-68555400D01*
X98131476Y-68555400D02*
X98036238Y-68460161D01*
X98036238Y-68460161D02*
X97988619Y-68364923D01*
X97988619Y-68364923D02*
X97941000Y-68174447D01*
X97941000Y-68174447D02*
X97941000Y-68031590D01*
X97941000Y-68031590D02*
X97988619Y-67841114D01*
X97988619Y-67841114D02*
X98036238Y-67745876D01*
X98036238Y-67745876D02*
X98131476Y-67650638D01*
X98131476Y-67650638D02*
X98274333Y-67603019D01*
X98274333Y-67603019D02*
X98369571Y-67603019D01*
X98369571Y-67603019D02*
X98512428Y-67650638D01*
X98512428Y-67650638D02*
X98560047Y-67698257D01*
X98988619Y-68603019D02*
X98988619Y-67603019D01*
X99560047Y-68603019D02*
X99131476Y-68031590D01*
X99560047Y-67603019D02*
X98988619Y-68174447D01*
X100750524Y-68603019D02*
X100750524Y-67603019D01*
X100750524Y-68079209D02*
X101321952Y-68079209D01*
X101321952Y-68603019D02*
X101321952Y-67603019D01*
X101750524Y-68317304D02*
X102226714Y-68317304D01*
X101655286Y-68603019D02*
X101988619Y-67603019D01*
X101988619Y-67603019D02*
X102321952Y-68603019D01*
X103226714Y-68603019D02*
X102893381Y-68126828D01*
X102655286Y-68603019D02*
X102655286Y-67603019D01*
X102655286Y-67603019D02*
X103036238Y-67603019D01*
X103036238Y-67603019D02*
X103131476Y-67650638D01*
X103131476Y-67650638D02*
X103179095Y-67698257D01*
X103179095Y-67698257D02*
X103226714Y-67793495D01*
X103226714Y-67793495D02*
X103226714Y-67936352D01*
X103226714Y-67936352D02*
X103179095Y-68031590D01*
X103179095Y-68031590D02*
X103131476Y-68079209D01*
X103131476Y-68079209D02*
X103036238Y-68126828D01*
X103036238Y-68126828D02*
X102655286Y-68126828D01*
X103655286Y-68603019D02*
X103655286Y-67603019D01*
X103655286Y-67603019D02*
X104226714Y-68603019D01*
X104226714Y-68603019D02*
X104226714Y-67603019D01*
X104702905Y-68079209D02*
X105036238Y-68079209D01*
X105179095Y-68603019D02*
X104702905Y-68603019D01*
X104702905Y-68603019D02*
X104702905Y-67603019D01*
X104702905Y-67603019D02*
X105179095Y-67603019D01*
X105560048Y-68555400D02*
X105702905Y-68603019D01*
X105702905Y-68603019D02*
X105941000Y-68603019D01*
X105941000Y-68603019D02*
X106036238Y-68555400D01*
X106036238Y-68555400D02*
X106083857Y-68507780D01*
X106083857Y-68507780D02*
X106131476Y-68412542D01*
X106131476Y-68412542D02*
X106131476Y-68317304D01*
X106131476Y-68317304D02*
X106083857Y-68222066D01*
X106083857Y-68222066D02*
X106036238Y-68174447D01*
X106036238Y-68174447D02*
X105941000Y-68126828D01*
X105941000Y-68126828D02*
X105750524Y-68079209D01*
X105750524Y-68079209D02*
X105655286Y-68031590D01*
X105655286Y-68031590D02*
X105607667Y-67983971D01*
X105607667Y-67983971D02*
X105560048Y-67888733D01*
X105560048Y-67888733D02*
X105560048Y-67793495D01*
X105560048Y-67793495D02*
X105607667Y-67698257D01*
X105607667Y-67698257D02*
X105655286Y-67650638D01*
X105655286Y-67650638D02*
X105750524Y-67603019D01*
X105750524Y-67603019D02*
X105988619Y-67603019D01*
X105988619Y-67603019D02*
X106131476Y-67650638D01*
X106512429Y-68555400D02*
X106655286Y-68603019D01*
X106655286Y-68603019D02*
X106893381Y-68603019D01*
X106893381Y-68603019D02*
X106988619Y-68555400D01*
X106988619Y-68555400D02*
X107036238Y-68507780D01*
X107036238Y-68507780D02*
X107083857Y-68412542D01*
X107083857Y-68412542D02*
X107083857Y-68317304D01*
X107083857Y-68317304D02*
X107036238Y-68222066D01*
X107036238Y-68222066D02*
X106988619Y-68174447D01*
X106988619Y-68174447D02*
X106893381Y-68126828D01*
X106893381Y-68126828D02*
X106702905Y-68079209D01*
X106702905Y-68079209D02*
X106607667Y-68031590D01*
X106607667Y-68031590D02*
X106560048Y-67983971D01*
X106560048Y-67983971D02*
X106512429Y-67888733D01*
X106512429Y-67888733D02*
X106512429Y-67793495D01*
X106512429Y-67793495D02*
X106560048Y-67698257D01*
X106560048Y-67698257D02*
X106607667Y-67650638D01*
X106607667Y-67650638D02*
X106702905Y-67603019D01*
X106702905Y-67603019D02*
X106941000Y-67603019D01*
X106941000Y-67603019D02*
X107083857Y-67650638D01*
X106056990Y-57255580D02*
X106009371Y-57303200D01*
X106009371Y-57303200D02*
X105866514Y-57350819D01*
X105866514Y-57350819D02*
X105771276Y-57350819D01*
X105771276Y-57350819D02*
X105628419Y-57303200D01*
X105628419Y-57303200D02*
X105533181Y-57207961D01*
X105533181Y-57207961D02*
X105485562Y-57112723D01*
X105485562Y-57112723D02*
X105437943Y-56922247D01*
X105437943Y-56922247D02*
X105437943Y-56779390D01*
X105437943Y-56779390D02*
X105485562Y-56588914D01*
X105485562Y-56588914D02*
X105533181Y-56493676D01*
X105533181Y-56493676D02*
X105628419Y-56398438D01*
X105628419Y-56398438D02*
X105771276Y-56350819D01*
X105771276Y-56350819D02*
X105866514Y-56350819D01*
X105866514Y-56350819D02*
X106009371Y-56398438D01*
X106009371Y-56398438D02*
X106056990Y-56446057D01*
X106485562Y-57350819D02*
X106485562Y-56350819D01*
X106485562Y-56350819D02*
X106866514Y-56350819D01*
X106866514Y-56350819D02*
X106961752Y-56398438D01*
X106961752Y-56398438D02*
X107009371Y-56446057D01*
X107009371Y-56446057D02*
X107056990Y-56541295D01*
X107056990Y-56541295D02*
X107056990Y-56684152D01*
X107056990Y-56684152D02*
X107009371Y-56779390D01*
X107009371Y-56779390D02*
X106961752Y-56827009D01*
X106961752Y-56827009D02*
X106866514Y-56874628D01*
X106866514Y-56874628D02*
X106485562Y-56874628D01*
X107437943Y-57303200D02*
X107580800Y-57350819D01*
X107580800Y-57350819D02*
X107818895Y-57350819D01*
X107818895Y-57350819D02*
X107914133Y-57303200D01*
X107914133Y-57303200D02*
X107961752Y-57255580D01*
X107961752Y-57255580D02*
X108009371Y-57160342D01*
X108009371Y-57160342D02*
X108009371Y-57065104D01*
X108009371Y-57065104D02*
X107961752Y-56969866D01*
X107961752Y-56969866D02*
X107914133Y-56922247D01*
X107914133Y-56922247D02*
X107818895Y-56874628D01*
X107818895Y-56874628D02*
X107628419Y-56827009D01*
X107628419Y-56827009D02*
X107533181Y-56779390D01*
X107533181Y-56779390D02*
X107485562Y-56731771D01*
X107485562Y-56731771D02*
X107437943Y-56636533D01*
X107437943Y-56636533D02*
X107437943Y-56541295D01*
X107437943Y-56541295D02*
X107485562Y-56446057D01*
X107485562Y-56446057D02*
X107533181Y-56398438D01*
X107533181Y-56398438D02*
X107628419Y-56350819D01*
X107628419Y-56350819D02*
X107866514Y-56350819D01*
X107866514Y-56350819D02*
X108009371Y-56398438D01*
X108961752Y-57350819D02*
X108390324Y-57350819D01*
X108676038Y-57350819D02*
X108676038Y-56350819D01*
X108676038Y-56350819D02*
X108580800Y-56493676D01*
X108580800Y-56493676D02*
X108485562Y-56588914D01*
X108485562Y-56588914D02*
X108390324Y-56636533D01*
X110152229Y-57350819D02*
X110152229Y-56350819D01*
X110723657Y-57350819D02*
X110295086Y-56779390D01*
X110723657Y-56350819D02*
X110152229Y-56922247D01*
X111152229Y-57350819D02*
X111152229Y-56350819D01*
X112199847Y-57255580D02*
X112152228Y-57303200D01*
X112152228Y-57303200D02*
X112009371Y-57350819D01*
X112009371Y-57350819D02*
X111914133Y-57350819D01*
X111914133Y-57350819D02*
X111771276Y-57303200D01*
X111771276Y-57303200D02*
X111676038Y-57207961D01*
X111676038Y-57207961D02*
X111628419Y-57112723D01*
X111628419Y-57112723D02*
X111580800Y-56922247D01*
X111580800Y-56922247D02*
X111580800Y-56779390D01*
X111580800Y-56779390D02*
X111628419Y-56588914D01*
X111628419Y-56588914D02*
X111676038Y-56493676D01*
X111676038Y-56493676D02*
X111771276Y-56398438D01*
X111771276Y-56398438D02*
X111914133Y-56350819D01*
X111914133Y-56350819D02*
X112009371Y-56350819D01*
X112009371Y-56350819D02*
X112152228Y-56398438D01*
X112152228Y-56398438D02*
X112199847Y-56446057D01*
X112628419Y-57350819D02*
X112628419Y-56350819D01*
X113199847Y-57350819D02*
X112771276Y-56779390D01*
X113199847Y-56350819D02*
X112628419Y-56922247D01*
X114390324Y-57350819D02*
X114390324Y-56350819D01*
X114390324Y-56827009D02*
X114961752Y-56827009D01*
X114961752Y-57350819D02*
X114961752Y-56350819D01*
X115390324Y-57065104D02*
X115866514Y-57065104D01*
X115295086Y-57350819D02*
X115628419Y-56350819D01*
X115628419Y-56350819D02*
X115961752Y-57350819D01*
X116866514Y-57350819D02*
X116533181Y-56874628D01*
X116295086Y-57350819D02*
X116295086Y-56350819D01*
X116295086Y-56350819D02*
X116676038Y-56350819D01*
X116676038Y-56350819D02*
X116771276Y-56398438D01*
X116771276Y-56398438D02*
X116818895Y-56446057D01*
X116818895Y-56446057D02*
X116866514Y-56541295D01*
X116866514Y-56541295D02*
X116866514Y-56684152D01*
X116866514Y-56684152D02*
X116818895Y-56779390D01*
X116818895Y-56779390D02*
X116771276Y-56827009D01*
X116771276Y-56827009D02*
X116676038Y-56874628D01*
X116676038Y-56874628D02*
X116295086Y-56874628D01*
X117295086Y-57350819D02*
X117295086Y-56350819D01*
X117295086Y-56350819D02*
X117866514Y-57350819D01*
X117866514Y-57350819D02*
X117866514Y-56350819D01*
X118342705Y-56827009D02*
X118676038Y-56827009D01*
X118818895Y-57350819D02*
X118342705Y-57350819D01*
X118342705Y-57350819D02*
X118342705Y-56350819D01*
X118342705Y-56350819D02*
X118818895Y-56350819D01*
X119199848Y-57303200D02*
X119342705Y-57350819D01*
X119342705Y-57350819D02*
X119580800Y-57350819D01*
X119580800Y-57350819D02*
X119676038Y-57303200D01*
X119676038Y-57303200D02*
X119723657Y-57255580D01*
X119723657Y-57255580D02*
X119771276Y-57160342D01*
X119771276Y-57160342D02*
X119771276Y-57065104D01*
X119771276Y-57065104D02*
X119723657Y-56969866D01*
X119723657Y-56969866D02*
X119676038Y-56922247D01*
X119676038Y-56922247D02*
X119580800Y-56874628D01*
X119580800Y-56874628D02*
X119390324Y-56827009D01*
X119390324Y-56827009D02*
X119295086Y-56779390D01*
X119295086Y-56779390D02*
X119247467Y-56731771D01*
X119247467Y-56731771D02*
X119199848Y-56636533D01*
X119199848Y-56636533D02*
X119199848Y-56541295D01*
X119199848Y-56541295D02*
X119247467Y-56446057D01*
X119247467Y-56446057D02*
X119295086Y-56398438D01*
X119295086Y-56398438D02*
X119390324Y-56350819D01*
X119390324Y-56350819D02*
X119628419Y-56350819D01*
X119628419Y-56350819D02*
X119771276Y-56398438D01*
X120152229Y-57303200D02*
X120295086Y-57350819D01*
X120295086Y-57350819D02*
X120533181Y-57350819D01*
X120533181Y-57350819D02*
X120628419Y-57303200D01*
X120628419Y-57303200D02*
X120676038Y-57255580D01*
X120676038Y-57255580D02*
X120723657Y-57160342D01*
X120723657Y-57160342D02*
X120723657Y-57065104D01*
X120723657Y-57065104D02*
X120676038Y-56969866D01*
X120676038Y-56969866D02*
X120628419Y-56922247D01*
X120628419Y-56922247D02*
X120533181Y-56874628D01*
X120533181Y-56874628D02*
X120342705Y-56827009D01*
X120342705Y-56827009D02*
X120247467Y-56779390D01*
X120247467Y-56779390D02*
X120199848Y-56731771D01*
X120199848Y-56731771D02*
X120152229Y-56636533D01*
X120152229Y-56636533D02*
X120152229Y-56541295D01*
X120152229Y-56541295D02*
X120199848Y-56446057D01*
X120199848Y-56446057D02*
X120247467Y-56398438D01*
X120247467Y-56398438D02*
X120342705Y-56350819D01*
X120342705Y-56350819D02*
X120580800Y-56350819D01*
X120580800Y-56350819D02*
X120723657Y-56398438D01*
X128590561Y-146317429D02*
X128685800Y-146412667D01*
X128685800Y-146412667D02*
X128781038Y-146698381D01*
X128781038Y-146698381D02*
X128781038Y-146888857D01*
X128781038Y-146888857D02*
X128685800Y-147174572D01*
X128685800Y-147174572D02*
X128495323Y-147365048D01*
X128495323Y-147365048D02*
X128304847Y-147460286D01*
X128304847Y-147460286D02*
X127923895Y-147555524D01*
X127923895Y-147555524D02*
X127638180Y-147555524D01*
X127638180Y-147555524D02*
X127257228Y-147460286D01*
X127257228Y-147460286D02*
X127066752Y-147365048D01*
X127066752Y-147365048D02*
X126876276Y-147174572D01*
X126876276Y-147174572D02*
X126781038Y-146888857D01*
X126781038Y-146888857D02*
X126781038Y-146698381D01*
X126781038Y-146698381D02*
X126876276Y-146412667D01*
X126876276Y-146412667D02*
X126971514Y-146317429D01*
X128209609Y-145555524D02*
X128209609Y-144603143D01*
X128781038Y-145746000D02*
X126781038Y-145079334D01*
X126781038Y-145079334D02*
X128781038Y-144412667D01*
X128781038Y-143746000D02*
X126781038Y-143746000D01*
X126781038Y-143746000D02*
X126781038Y-142984095D01*
X126781038Y-142984095D02*
X126876276Y-142793619D01*
X126876276Y-142793619D02*
X126971514Y-142698381D01*
X126971514Y-142698381D02*
X127161990Y-142603143D01*
X127161990Y-142603143D02*
X127447704Y-142603143D01*
X127447704Y-142603143D02*
X127638180Y-142698381D01*
X127638180Y-142698381D02*
X127733419Y-142793619D01*
X127733419Y-142793619D02*
X127828657Y-142984095D01*
X127828657Y-142984095D02*
X127828657Y-143746000D01*
X128590561Y-140603143D02*
X128685800Y-140698381D01*
X128685800Y-140698381D02*
X128781038Y-140984095D01*
X128781038Y-140984095D02*
X128781038Y-141174571D01*
X128781038Y-141174571D02*
X128685800Y-141460286D01*
X128685800Y-141460286D02*
X128495323Y-141650762D01*
X128495323Y-141650762D02*
X128304847Y-141746000D01*
X128304847Y-141746000D02*
X127923895Y-141841238D01*
X127923895Y-141841238D02*
X127638180Y-141841238D01*
X127638180Y-141841238D02*
X127257228Y-141746000D01*
X127257228Y-141746000D02*
X127066752Y-141650762D01*
X127066752Y-141650762D02*
X126876276Y-141460286D01*
X126876276Y-141460286D02*
X126781038Y-141174571D01*
X126781038Y-141174571D02*
X126781038Y-140984095D01*
X126781038Y-140984095D02*
X126876276Y-140698381D01*
X126876276Y-140698381D02*
X126971514Y-140603143D01*
X126781038Y-139365048D02*
X126781038Y-138984095D01*
X126781038Y-138984095D02*
X126876276Y-138793619D01*
X126876276Y-138793619D02*
X127066752Y-138603143D01*
X127066752Y-138603143D02*
X127447704Y-138507905D01*
X127447704Y-138507905D02*
X128114371Y-138507905D01*
X128114371Y-138507905D02*
X128495323Y-138603143D01*
X128495323Y-138603143D02*
X128685800Y-138793619D01*
X128685800Y-138793619D02*
X128781038Y-138984095D01*
X128781038Y-138984095D02*
X128781038Y-139365048D01*
X128781038Y-139365048D02*
X128685800Y-139555524D01*
X128685800Y-139555524D02*
X128495323Y-139746000D01*
X128495323Y-139746000D02*
X128114371Y-139841238D01*
X128114371Y-139841238D02*
X127447704Y-139841238D01*
X127447704Y-139841238D02*
X127066752Y-139746000D01*
X127066752Y-139746000D02*
X126876276Y-139555524D01*
X126876276Y-139555524D02*
X126781038Y-139365048D01*
X128781038Y-137650762D02*
X126781038Y-137650762D01*
X126781038Y-137650762D02*
X128209609Y-136984095D01*
X128209609Y-136984095D02*
X126781038Y-136317429D01*
X126781038Y-136317429D02*
X128781038Y-136317429D01*
X126781038Y-133269809D02*
X128209609Y-133269809D01*
X128209609Y-133269809D02*
X128495323Y-133365048D01*
X128495323Y-133365048D02*
X128685800Y-133555524D01*
X128685800Y-133555524D02*
X128781038Y-133841238D01*
X128781038Y-133841238D02*
X128781038Y-134031714D01*
X128209609Y-132412666D02*
X128209609Y-131460285D01*
X128781038Y-132603142D02*
X126781038Y-131936476D01*
X126781038Y-131936476D02*
X128781038Y-131269809D01*
X128781038Y-130603142D02*
X126781038Y-130603142D01*
X126781038Y-130603142D02*
X128209609Y-129936475D01*
X128209609Y-129936475D02*
X126781038Y-129269809D01*
X126781038Y-129269809D02*
X128781038Y-129269809D01*
X128781038Y-128317428D02*
X126781038Y-128317428D01*
X126781038Y-128317428D02*
X128209609Y-127650761D01*
X128209609Y-127650761D02*
X126781038Y-126984095D01*
X126781038Y-126984095D02*
X128781038Y-126984095D01*
X128209609Y-126126952D02*
X128209609Y-125174571D01*
X128781038Y-126317428D02*
X126781038Y-125650762D01*
X126781038Y-125650762D02*
X128781038Y-124984095D01*
X128590561Y-121650761D02*
X128685800Y-121745999D01*
X128685800Y-121745999D02*
X128781038Y-122031713D01*
X128781038Y-122031713D02*
X128781038Y-122222189D01*
X128781038Y-122222189D02*
X128685800Y-122507904D01*
X128685800Y-122507904D02*
X128495323Y-122698380D01*
X128495323Y-122698380D02*
X128304847Y-122793618D01*
X128304847Y-122793618D02*
X127923895Y-122888856D01*
X127923895Y-122888856D02*
X127638180Y-122888856D01*
X127638180Y-122888856D02*
X127257228Y-122793618D01*
X127257228Y-122793618D02*
X127066752Y-122698380D01*
X127066752Y-122698380D02*
X126876276Y-122507904D01*
X126876276Y-122507904D02*
X126781038Y-122222189D01*
X126781038Y-122222189D02*
X126781038Y-122031713D01*
X126781038Y-122031713D02*
X126876276Y-121745999D01*
X126876276Y-121745999D02*
X126971514Y-121650761D01*
X126781038Y-120412666D02*
X126781038Y-120031713D01*
X126781038Y-120031713D02*
X126876276Y-119841237D01*
X126876276Y-119841237D02*
X127066752Y-119650761D01*
X127066752Y-119650761D02*
X127447704Y-119555523D01*
X127447704Y-119555523D02*
X128114371Y-119555523D01*
X128114371Y-119555523D02*
X128495323Y-119650761D01*
X128495323Y-119650761D02*
X128685800Y-119841237D01*
X128685800Y-119841237D02*
X128781038Y-120031713D01*
X128781038Y-120031713D02*
X128781038Y-120412666D01*
X128781038Y-120412666D02*
X128685800Y-120603142D01*
X128685800Y-120603142D02*
X128495323Y-120793618D01*
X128495323Y-120793618D02*
X128114371Y-120888856D01*
X128114371Y-120888856D02*
X127447704Y-120888856D01*
X127447704Y-120888856D02*
X127066752Y-120793618D01*
X127066752Y-120793618D02*
X126876276Y-120603142D01*
X126876276Y-120603142D02*
X126781038Y-120412666D01*
X128781038Y-118698380D02*
X126781038Y-118698380D01*
X126781038Y-118698380D02*
X128781038Y-117555523D01*
X128781038Y-117555523D02*
X126781038Y-117555523D01*
X128781038Y-116603142D02*
X126781038Y-116603142D01*
X126781038Y-116603142D02*
X128781038Y-115460285D01*
X128781038Y-115460285D02*
X126781038Y-115460285D01*
X127733419Y-114507904D02*
X127733419Y-113841237D01*
X128781038Y-113555523D02*
X128781038Y-114507904D01*
X128781038Y-114507904D02*
X126781038Y-114507904D01*
X126781038Y-114507904D02*
X126781038Y-113555523D01*
X128590561Y-111555523D02*
X128685800Y-111650761D01*
X128685800Y-111650761D02*
X128781038Y-111936475D01*
X128781038Y-111936475D02*
X128781038Y-112126951D01*
X128781038Y-112126951D02*
X128685800Y-112412666D01*
X128685800Y-112412666D02*
X128495323Y-112603142D01*
X128495323Y-112603142D02*
X128304847Y-112698380D01*
X128304847Y-112698380D02*
X127923895Y-112793618D01*
X127923895Y-112793618D02*
X127638180Y-112793618D01*
X127638180Y-112793618D02*
X127257228Y-112698380D01*
X127257228Y-112698380D02*
X127066752Y-112603142D01*
X127066752Y-112603142D02*
X126876276Y-112412666D01*
X126876276Y-112412666D02*
X126781038Y-112126951D01*
X126781038Y-112126951D02*
X126781038Y-111936475D01*
X126781038Y-111936475D02*
X126876276Y-111650761D01*
X126876276Y-111650761D02*
X126971514Y-111555523D01*
X126781038Y-110984094D02*
X126781038Y-109841237D01*
X128781038Y-110412666D02*
X126781038Y-110412666D01*
X126781038Y-108793618D02*
X126781038Y-108412665D01*
X126781038Y-108412665D02*
X126876276Y-108222189D01*
X126876276Y-108222189D02*
X127066752Y-108031713D01*
X127066752Y-108031713D02*
X127447704Y-107936475D01*
X127447704Y-107936475D02*
X128114371Y-107936475D01*
X128114371Y-107936475D02*
X128495323Y-108031713D01*
X128495323Y-108031713D02*
X128685800Y-108222189D01*
X128685800Y-108222189D02*
X128781038Y-108412665D01*
X128781038Y-108412665D02*
X128781038Y-108793618D01*
X128781038Y-108793618D02*
X128685800Y-108984094D01*
X128685800Y-108984094D02*
X128495323Y-109174570D01*
X128495323Y-109174570D02*
X128114371Y-109269808D01*
X128114371Y-109269808D02*
X127447704Y-109269808D01*
X127447704Y-109269808D02*
X127066752Y-109174570D01*
X127066752Y-109174570D02*
X126876276Y-108984094D01*
X126876276Y-108984094D02*
X126781038Y-108793618D01*
X128781038Y-105936475D02*
X127828657Y-106603142D01*
X128781038Y-107079332D02*
X126781038Y-107079332D01*
X126781038Y-107079332D02*
X126781038Y-106317427D01*
X126781038Y-106317427D02*
X126876276Y-106126951D01*
X126876276Y-106126951D02*
X126971514Y-106031713D01*
X126971514Y-106031713D02*
X127161990Y-105936475D01*
X127161990Y-105936475D02*
X127447704Y-105936475D01*
X127447704Y-105936475D02*
X127638180Y-106031713D01*
X127638180Y-106031713D02*
X127733419Y-106126951D01*
X127733419Y-106126951D02*
X127828657Y-106317427D01*
X127828657Y-106317427D02*
X127828657Y-107079332D01*
X70748638Y-133396095D02*
X70748638Y-132253238D01*
X72748638Y-132824667D02*
X70748638Y-132824667D01*
X70748638Y-131205619D02*
X70748638Y-130824666D01*
X70748638Y-130824666D02*
X70843876Y-130634190D01*
X70843876Y-130634190D02*
X71034352Y-130443714D01*
X71034352Y-130443714D02*
X71415304Y-130348476D01*
X71415304Y-130348476D02*
X72081971Y-130348476D01*
X72081971Y-130348476D02*
X72462923Y-130443714D01*
X72462923Y-130443714D02*
X72653400Y-130634190D01*
X72653400Y-130634190D02*
X72748638Y-130824666D01*
X72748638Y-130824666D02*
X72748638Y-131205619D01*
X72748638Y-131205619D02*
X72653400Y-131396095D01*
X72653400Y-131396095D02*
X72462923Y-131586571D01*
X72462923Y-131586571D02*
X72081971Y-131681809D01*
X72081971Y-131681809D02*
X71415304Y-131681809D01*
X71415304Y-131681809D02*
X71034352Y-131586571D01*
X71034352Y-131586571D02*
X70843876Y-131396095D01*
X70843876Y-131396095D02*
X70748638Y-131205619D01*
X72653400Y-128062761D02*
X72748638Y-127777047D01*
X72748638Y-127777047D02*
X72748638Y-127300856D01*
X72748638Y-127300856D02*
X72653400Y-127110380D01*
X72653400Y-127110380D02*
X72558161Y-127015142D01*
X72558161Y-127015142D02*
X72367685Y-126919904D01*
X72367685Y-126919904D02*
X72177209Y-126919904D01*
X72177209Y-126919904D02*
X71986733Y-127015142D01*
X71986733Y-127015142D02*
X71891495Y-127110380D01*
X71891495Y-127110380D02*
X71796257Y-127300856D01*
X71796257Y-127300856D02*
X71701019Y-127681809D01*
X71701019Y-127681809D02*
X71605780Y-127872285D01*
X71605780Y-127872285D02*
X71510542Y-127967523D01*
X71510542Y-127967523D02*
X71320066Y-128062761D01*
X71320066Y-128062761D02*
X71129590Y-128062761D01*
X71129590Y-128062761D02*
X70939114Y-127967523D01*
X70939114Y-127967523D02*
X70843876Y-127872285D01*
X70843876Y-127872285D02*
X70748638Y-127681809D01*
X70748638Y-127681809D02*
X70748638Y-127205618D01*
X70748638Y-127205618D02*
X70843876Y-126919904D01*
X71701019Y-125396094D02*
X71701019Y-126062761D01*
X72748638Y-126062761D02*
X70748638Y-126062761D01*
X70748638Y-126062761D02*
X70748638Y-125110380D01*
X72558161Y-124348475D02*
X72653400Y-124253237D01*
X72653400Y-124253237D02*
X72748638Y-124348475D01*
X72748638Y-124348475D02*
X72653400Y-124443713D01*
X72653400Y-124443713D02*
X72558161Y-124348475D01*
X72558161Y-124348475D02*
X72748638Y-124348475D01*
X71510542Y-124348475D02*
X71605780Y-124253237D01*
X71605780Y-124253237D02*
X71701019Y-124348475D01*
X71701019Y-124348475D02*
X71605780Y-124443713D01*
X71605780Y-124443713D02*
X71510542Y-124348475D01*
X71510542Y-124348475D02*
X71701019Y-124348475D01*
X70748638Y-123681808D02*
X70748638Y-122538951D01*
X72748638Y-123110380D02*
X70748638Y-123110380D01*
X72748638Y-121872284D02*
X70748638Y-121872284D01*
X70748638Y-121872284D02*
X72177209Y-121205617D01*
X72177209Y-121205617D02*
X70748638Y-120538951D01*
X70748638Y-120538951D02*
X72748638Y-120538951D01*
X71701019Y-117396093D02*
X71796257Y-117110379D01*
X71796257Y-117110379D02*
X71891495Y-117015141D01*
X71891495Y-117015141D02*
X72081971Y-116919903D01*
X72081971Y-116919903D02*
X72367685Y-116919903D01*
X72367685Y-116919903D02*
X72558161Y-117015141D01*
X72558161Y-117015141D02*
X72653400Y-117110379D01*
X72653400Y-117110379D02*
X72748638Y-117300855D01*
X72748638Y-117300855D02*
X72748638Y-118062760D01*
X72748638Y-118062760D02*
X70748638Y-118062760D01*
X70748638Y-118062760D02*
X70748638Y-117396093D01*
X70748638Y-117396093D02*
X70843876Y-117205617D01*
X70843876Y-117205617D02*
X70939114Y-117110379D01*
X70939114Y-117110379D02*
X71129590Y-117015141D01*
X71129590Y-117015141D02*
X71320066Y-117015141D01*
X71320066Y-117015141D02*
X71510542Y-117110379D01*
X71510542Y-117110379D02*
X71605780Y-117205617D01*
X71605780Y-117205617D02*
X71701019Y-117396093D01*
X71701019Y-117396093D02*
X71701019Y-118062760D01*
X70748638Y-115681808D02*
X70748638Y-115300855D01*
X70748638Y-115300855D02*
X70843876Y-115110379D01*
X70843876Y-115110379D02*
X71034352Y-114919903D01*
X71034352Y-114919903D02*
X71415304Y-114824665D01*
X71415304Y-114824665D02*
X72081971Y-114824665D01*
X72081971Y-114824665D02*
X72462923Y-114919903D01*
X72462923Y-114919903D02*
X72653400Y-115110379D01*
X72653400Y-115110379D02*
X72748638Y-115300855D01*
X72748638Y-115300855D02*
X72748638Y-115681808D01*
X72748638Y-115681808D02*
X72653400Y-115872284D01*
X72653400Y-115872284D02*
X72462923Y-116062760D01*
X72462923Y-116062760D02*
X72081971Y-116157998D01*
X72081971Y-116157998D02*
X71415304Y-116157998D01*
X71415304Y-116157998D02*
X71034352Y-116062760D01*
X71034352Y-116062760D02*
X70843876Y-115872284D01*
X70843876Y-115872284D02*
X70748638Y-115681808D01*
X72177209Y-114062760D02*
X72177209Y-113110379D01*
X72748638Y-114253236D02*
X70748638Y-113586570D01*
X70748638Y-113586570D02*
X72748638Y-112919903D01*
X72748638Y-111110379D02*
X71796257Y-111777046D01*
X72748638Y-112253236D02*
X70748638Y-112253236D01*
X70748638Y-112253236D02*
X70748638Y-111491331D01*
X70748638Y-111491331D02*
X70843876Y-111300855D01*
X70843876Y-111300855D02*
X70939114Y-111205617D01*
X70939114Y-111205617D02*
X71129590Y-111110379D01*
X71129590Y-111110379D02*
X71415304Y-111110379D01*
X71415304Y-111110379D02*
X71605780Y-111205617D01*
X71605780Y-111205617D02*
X71701019Y-111300855D01*
X71701019Y-111300855D02*
X71796257Y-111491331D01*
X71796257Y-111491331D02*
X71796257Y-112253236D01*
X72748638Y-110253236D02*
X70748638Y-110253236D01*
X70748638Y-110253236D02*
X70748638Y-109777046D01*
X70748638Y-109777046D02*
X70843876Y-109491331D01*
X70843876Y-109491331D02*
X71034352Y-109300855D01*
X71034352Y-109300855D02*
X71224828Y-109205617D01*
X71224828Y-109205617D02*
X71605780Y-109110379D01*
X71605780Y-109110379D02*
X71891495Y-109110379D01*
X71891495Y-109110379D02*
X72272447Y-109205617D01*
X72272447Y-109205617D02*
X72462923Y-109300855D01*
X72462923Y-109300855D02*
X72653400Y-109491331D01*
X72653400Y-109491331D02*
X72748638Y-109777046D01*
X72748638Y-109777046D02*
X72748638Y-110253236D01*
X87517791Y-50470600D02*
X87660648Y-50518219D01*
X87660648Y-50518219D02*
X87898743Y-50518219D01*
X87898743Y-50518219D02*
X87993981Y-50470600D01*
X87993981Y-50470600D02*
X88041600Y-50422980D01*
X88041600Y-50422980D02*
X88089219Y-50327742D01*
X88089219Y-50327742D02*
X88089219Y-50232504D01*
X88089219Y-50232504D02*
X88041600Y-50137266D01*
X88041600Y-50137266D02*
X87993981Y-50089647D01*
X87993981Y-50089647D02*
X87898743Y-50042028D01*
X87898743Y-50042028D02*
X87708267Y-49994409D01*
X87708267Y-49994409D02*
X87613029Y-49946790D01*
X87613029Y-49946790D02*
X87565410Y-49899171D01*
X87565410Y-49899171D02*
X87517791Y-49803933D01*
X87517791Y-49803933D02*
X87517791Y-49708695D01*
X87517791Y-49708695D02*
X87565410Y-49613457D01*
X87565410Y-49613457D02*
X87613029Y-49565838D01*
X87613029Y-49565838D02*
X87708267Y-49518219D01*
X87708267Y-49518219D02*
X87946362Y-49518219D01*
X87946362Y-49518219D02*
X88089219Y-49565838D01*
X88851124Y-49994409D02*
X88517791Y-49994409D01*
X88517791Y-50518219D02*
X88517791Y-49518219D01*
X88517791Y-49518219D02*
X88993981Y-49518219D01*
X89374934Y-50422980D02*
X89422553Y-50470600D01*
X89422553Y-50470600D02*
X89374934Y-50518219D01*
X89374934Y-50518219D02*
X89327315Y-50470600D01*
X89327315Y-50470600D02*
X89374934Y-50422980D01*
X89374934Y-50422980D02*
X89374934Y-50518219D01*
X89374934Y-49899171D02*
X89422553Y-49946790D01*
X89422553Y-49946790D02*
X89374934Y-49994409D01*
X89374934Y-49994409D02*
X89327315Y-49946790D01*
X89327315Y-49946790D02*
X89374934Y-49899171D01*
X89374934Y-49899171D02*
X89374934Y-49994409D01*
X89708267Y-49518219D02*
X90279695Y-49518219D01*
X89993981Y-50518219D02*
X89993981Y-49518219D01*
X90613029Y-50518219D02*
X90613029Y-49518219D01*
X90613029Y-49518219D02*
X90946362Y-50232504D01*
X90946362Y-50232504D02*
X91279695Y-49518219D01*
X91279695Y-49518219D02*
X91279695Y-50518219D01*
X92517791Y-50518219D02*
X92517791Y-49518219D01*
X93089219Y-50518219D02*
X92660648Y-49946790D01*
X93089219Y-49518219D02*
X92517791Y-50089647D01*
X93517791Y-50518219D02*
X93517791Y-49518219D01*
X94565409Y-50422980D02*
X94517790Y-50470600D01*
X94517790Y-50470600D02*
X94374933Y-50518219D01*
X94374933Y-50518219D02*
X94279695Y-50518219D01*
X94279695Y-50518219D02*
X94136838Y-50470600D01*
X94136838Y-50470600D02*
X94041600Y-50375361D01*
X94041600Y-50375361D02*
X93993981Y-50280123D01*
X93993981Y-50280123D02*
X93946362Y-50089647D01*
X93946362Y-50089647D02*
X93946362Y-49946790D01*
X93946362Y-49946790D02*
X93993981Y-49756314D01*
X93993981Y-49756314D02*
X94041600Y-49661076D01*
X94041600Y-49661076D02*
X94136838Y-49565838D01*
X94136838Y-49565838D02*
X94279695Y-49518219D01*
X94279695Y-49518219D02*
X94374933Y-49518219D01*
X94374933Y-49518219D02*
X94517790Y-49565838D01*
X94517790Y-49565838D02*
X94565409Y-49613457D01*
X94993981Y-50518219D02*
X94993981Y-49518219D01*
X95565409Y-50518219D02*
X95136838Y-49946790D01*
X95565409Y-49518219D02*
X94993981Y-50089647D01*
X117018600Y-123984637D02*
X117066219Y-123841780D01*
X117066219Y-123841780D02*
X117066219Y-123603685D01*
X117066219Y-123603685D02*
X117018600Y-123508447D01*
X117018600Y-123508447D02*
X116970980Y-123460828D01*
X116970980Y-123460828D02*
X116875742Y-123413209D01*
X116875742Y-123413209D02*
X116780504Y-123413209D01*
X116780504Y-123413209D02*
X116685266Y-123460828D01*
X116685266Y-123460828D02*
X116637647Y-123508447D01*
X116637647Y-123508447D02*
X116590028Y-123603685D01*
X116590028Y-123603685D02*
X116542409Y-123794161D01*
X116542409Y-123794161D02*
X116494790Y-123889399D01*
X116494790Y-123889399D02*
X116447171Y-123937018D01*
X116447171Y-123937018D02*
X116351933Y-123984637D01*
X116351933Y-123984637D02*
X116256695Y-123984637D01*
X116256695Y-123984637D02*
X116161457Y-123937018D01*
X116161457Y-123937018D02*
X116113838Y-123889399D01*
X116113838Y-123889399D02*
X116066219Y-123794161D01*
X116066219Y-123794161D02*
X116066219Y-123556066D01*
X116066219Y-123556066D02*
X116113838Y-123413209D01*
X116542409Y-122651304D02*
X116542409Y-122984637D01*
X117066219Y-122984637D02*
X116066219Y-122984637D01*
X116066219Y-122984637D02*
X116066219Y-122508447D01*
X116970980Y-122127494D02*
X117018600Y-122079875D01*
X117018600Y-122079875D02*
X117066219Y-122127494D01*
X117066219Y-122127494D02*
X117018600Y-122175113D01*
X117018600Y-122175113D02*
X116970980Y-122127494D01*
X116970980Y-122127494D02*
X117066219Y-122127494D01*
X116447171Y-122127494D02*
X116494790Y-122079875D01*
X116494790Y-122079875D02*
X116542409Y-122127494D01*
X116542409Y-122127494D02*
X116494790Y-122175113D01*
X116494790Y-122175113D02*
X116447171Y-122127494D01*
X116447171Y-122127494D02*
X116542409Y-122127494D01*
X116066219Y-121794161D02*
X116066219Y-121222733D01*
X117066219Y-121508447D02*
X116066219Y-121508447D01*
X117066219Y-120889399D02*
X116066219Y-120889399D01*
X116066219Y-120889399D02*
X116780504Y-120556066D01*
X116780504Y-120556066D02*
X116066219Y-120222733D01*
X116066219Y-120222733D02*
X117066219Y-120222733D01*
X117018600Y-119032256D02*
X117066219Y-118889399D01*
X117066219Y-118889399D02*
X117066219Y-118651304D01*
X117066219Y-118651304D02*
X117018600Y-118556066D01*
X117018600Y-118556066D02*
X116970980Y-118508447D01*
X116970980Y-118508447D02*
X116875742Y-118460828D01*
X116875742Y-118460828D02*
X116780504Y-118460828D01*
X116780504Y-118460828D02*
X116685266Y-118508447D01*
X116685266Y-118508447D02*
X116637647Y-118556066D01*
X116637647Y-118556066D02*
X116590028Y-118651304D01*
X116590028Y-118651304D02*
X116542409Y-118841780D01*
X116542409Y-118841780D02*
X116494790Y-118937018D01*
X116494790Y-118937018D02*
X116447171Y-118984637D01*
X116447171Y-118984637D02*
X116351933Y-119032256D01*
X116351933Y-119032256D02*
X116256695Y-119032256D01*
X116256695Y-119032256D02*
X116161457Y-118984637D01*
X116161457Y-118984637D02*
X116113838Y-118937018D01*
X116113838Y-118937018D02*
X116066219Y-118841780D01*
X116066219Y-118841780D02*
X116066219Y-118603685D01*
X116066219Y-118603685D02*
X116113838Y-118460828D01*
X117066219Y-118032256D02*
X116066219Y-118032256D01*
X116066219Y-118032256D02*
X116066219Y-117651304D01*
X116066219Y-117651304D02*
X116113838Y-117556066D01*
X116113838Y-117556066D02*
X116161457Y-117508447D01*
X116161457Y-117508447D02*
X116256695Y-117460828D01*
X116256695Y-117460828D02*
X116399552Y-117460828D01*
X116399552Y-117460828D02*
X116494790Y-117508447D01*
X116494790Y-117508447D02*
X116542409Y-117556066D01*
X116542409Y-117556066D02*
X116590028Y-117651304D01*
X116590028Y-117651304D02*
X116590028Y-118032256D01*
X116542409Y-117032256D02*
X116542409Y-116698923D01*
X117066219Y-116556066D02*
X117066219Y-117032256D01*
X117066219Y-117032256D02*
X116066219Y-117032256D01*
X116066219Y-117032256D02*
X116066219Y-116556066D01*
X116780504Y-116175113D02*
X116780504Y-115698923D01*
X117066219Y-116270351D02*
X116066219Y-115937018D01*
X116066219Y-115937018D02*
X117066219Y-115603685D01*
X117066219Y-115270351D02*
X116066219Y-115270351D01*
X117066219Y-114698923D02*
X116494790Y-115127494D01*
X116066219Y-114698923D02*
X116637647Y-115270351D01*
X116542409Y-114270351D02*
X116542409Y-113937018D01*
X117066219Y-113794161D02*
X117066219Y-114270351D01*
X117066219Y-114270351D02*
X116066219Y-114270351D01*
X116066219Y-114270351D02*
X116066219Y-113794161D01*
X117066219Y-112794161D02*
X116590028Y-113127494D01*
X117066219Y-113365589D02*
X116066219Y-113365589D01*
X116066219Y-113365589D02*
X116066219Y-112984637D01*
X116066219Y-112984637D02*
X116113838Y-112889399D01*
X116113838Y-112889399D02*
X116161457Y-112841780D01*
X116161457Y-112841780D02*
X116256695Y-112794161D01*
X116256695Y-112794161D02*
X116399552Y-112794161D01*
X116399552Y-112794161D02*
X116494790Y-112841780D01*
X116494790Y-112841780D02*
X116542409Y-112889399D01*
X116542409Y-112889399D02*
X116590028Y-112984637D01*
X116590028Y-112984637D02*
X116590028Y-113365589D01*
X112618266Y-50096419D02*
X112618266Y-50810704D01*
X112618266Y-50810704D02*
X112570647Y-50953561D01*
X112570647Y-50953561D02*
X112475409Y-51048800D01*
X112475409Y-51048800D02*
X112332552Y-51096419D01*
X112332552Y-51096419D02*
X112237314Y-51096419D01*
X113570647Y-50096419D02*
X113094457Y-50096419D01*
X113094457Y-50096419D02*
X113046838Y-50572609D01*
X113046838Y-50572609D02*
X113094457Y-50524990D01*
X113094457Y-50524990D02*
X113189695Y-50477371D01*
X113189695Y-50477371D02*
X113427790Y-50477371D01*
X113427790Y-50477371D02*
X113523028Y-50524990D01*
X113523028Y-50524990D02*
X113570647Y-50572609D01*
X113570647Y-50572609D02*
X113618266Y-50667847D01*
X113618266Y-50667847D02*
X113618266Y-50905942D01*
X113618266Y-50905942D02*
X113570647Y-51001180D01*
X113570647Y-51001180D02*
X113523028Y-51048800D01*
X113523028Y-51048800D02*
X113427790Y-51096419D01*
X113427790Y-51096419D02*
X113189695Y-51096419D01*
X113189695Y-51096419D02*
X113094457Y-51048800D01*
X113094457Y-51048800D02*
X113046838Y-51001180D01*
X98820648Y-50896419D02*
X98820648Y-49896419D01*
X98820648Y-49896419D02*
X99201600Y-49896419D01*
X99201600Y-49896419D02*
X99296838Y-49944038D01*
X99296838Y-49944038D02*
X99344457Y-49991657D01*
X99344457Y-49991657D02*
X99392076Y-50086895D01*
X99392076Y-50086895D02*
X99392076Y-50229752D01*
X99392076Y-50229752D02*
X99344457Y-50324990D01*
X99344457Y-50324990D02*
X99296838Y-50372609D01*
X99296838Y-50372609D02*
X99201600Y-50420228D01*
X99201600Y-50420228D02*
X98820648Y-50420228D01*
X99820648Y-50896419D02*
X99820648Y-49896419D01*
X100296838Y-50896419D02*
X100296838Y-49896419D01*
X100296838Y-49896419D02*
X100868266Y-50896419D01*
X100868266Y-50896419D02*
X100868266Y-49896419D01*
X102630171Y-50896419D02*
X102058743Y-50896419D01*
X102344457Y-50896419D02*
X102344457Y-49896419D01*
X102344457Y-49896419D02*
X102249219Y-50039276D01*
X102249219Y-50039276D02*
X102153981Y-50134514D01*
X102153981Y-50134514D02*
X102058743Y-50182133D01*
X107679019Y-118367133D02*
X108393304Y-118367133D01*
X108393304Y-118367133D02*
X108536161Y-118414752D01*
X108536161Y-118414752D02*
X108631400Y-118509990D01*
X108631400Y-118509990D02*
X108679019Y-118652847D01*
X108679019Y-118652847D02*
X108679019Y-118748085D01*
X108012352Y-117462371D02*
X108679019Y-117462371D01*
X107631400Y-117700466D02*
X108345685Y-117938561D01*
X108345685Y-117938561D02*
X108345685Y-117319514D01*
X69591842Y-103168399D02*
X70448985Y-103168399D01*
X70448985Y-103168399D02*
X70620414Y-103225542D01*
X70620414Y-103225542D02*
X70734700Y-103339828D01*
X70734700Y-103339828D02*
X70791842Y-103511256D01*
X70791842Y-103511256D02*
X70791842Y-103625542D01*
X70791842Y-101968399D02*
X70791842Y-102654113D01*
X70791842Y-102311256D02*
X69591842Y-102311256D01*
X69591842Y-102311256D02*
X69763271Y-102425542D01*
X69763271Y-102425542D02*
X69877557Y-102539827D01*
X69877557Y-102539827D02*
X69934700Y-102654113D01*
X129483442Y-103092199D02*
X130340585Y-103092199D01*
X130340585Y-103092199D02*
X130512014Y-103149342D01*
X130512014Y-103149342D02*
X130626300Y-103263628D01*
X130626300Y-103263628D02*
X130683442Y-103435056D01*
X130683442Y-103435056D02*
X130683442Y-103549342D01*
X129597728Y-102577913D02*
X129540585Y-102520770D01*
X129540585Y-102520770D02*
X129483442Y-102406485D01*
X129483442Y-102406485D02*
X129483442Y-102120770D01*
X129483442Y-102120770D02*
X129540585Y-102006485D01*
X129540585Y-102006485D02*
X129597728Y-101949342D01*
X129597728Y-101949342D02*
X129712014Y-101892199D01*
X129712014Y-101892199D02*
X129826300Y-101892199D01*
X129826300Y-101892199D02*
X129997728Y-101949342D01*
X129997728Y-101949342D02*
X130683442Y-102635056D01*
X130683442Y-102635056D02*
X130683442Y-101892199D01*
X91106666Y-57626019D02*
X91106666Y-58340304D01*
X91106666Y-58340304D02*
X91059047Y-58483161D01*
X91059047Y-58483161D02*
X90963809Y-58578400D01*
X90963809Y-58578400D02*
X90820952Y-58626019D01*
X90820952Y-58626019D02*
X90725714Y-58626019D01*
X91487619Y-57626019D02*
X92106666Y-57626019D01*
X92106666Y-57626019D02*
X91773333Y-58006971D01*
X91773333Y-58006971D02*
X91916190Y-58006971D01*
X91916190Y-58006971D02*
X92011428Y-58054590D01*
X92011428Y-58054590D02*
X92059047Y-58102209D01*
X92059047Y-58102209D02*
X92106666Y-58197447D01*
X92106666Y-58197447D02*
X92106666Y-58435542D01*
X92106666Y-58435542D02*
X92059047Y-58530780D01*
X92059047Y-58530780D02*
X92011428Y-58578400D01*
X92011428Y-58578400D02*
X91916190Y-58626019D01*
X91916190Y-58626019D02*
X91630476Y-58626019D01*
X91630476Y-58626019D02*
X91535238Y-58578400D01*
X91535238Y-58578400D02*
X91487619Y-58530780D01*
X75839019Y-63430933D02*
X76553304Y-63430933D01*
X76553304Y-63430933D02*
X76696161Y-63478552D01*
X76696161Y-63478552D02*
X76791400Y-63573790D01*
X76791400Y-63573790D02*
X76839019Y-63716647D01*
X76839019Y-63716647D02*
X76839019Y-63811885D01*
X75839019Y-62526171D02*
X75839019Y-62716647D01*
X75839019Y-62716647D02*
X75886638Y-62811885D01*
X75886638Y-62811885D02*
X75934257Y-62859504D01*
X75934257Y-62859504D02*
X76077114Y-62954742D01*
X76077114Y-62954742D02*
X76267590Y-63002361D01*
X76267590Y-63002361D02*
X76648542Y-63002361D01*
X76648542Y-63002361D02*
X76743780Y-62954742D01*
X76743780Y-62954742D02*
X76791400Y-62907123D01*
X76791400Y-62907123D02*
X76839019Y-62811885D01*
X76839019Y-62811885D02*
X76839019Y-62621409D01*
X76839019Y-62621409D02*
X76791400Y-62526171D01*
X76791400Y-62526171D02*
X76743780Y-62478552D01*
X76743780Y-62478552D02*
X76648542Y-62430933D01*
X76648542Y-62430933D02*
X76410447Y-62430933D01*
X76410447Y-62430933D02*
X76315209Y-62478552D01*
X76315209Y-62478552D02*
X76267590Y-62526171D01*
X76267590Y-62526171D02*
X76219971Y-62621409D01*
X76219971Y-62621409D02*
X76219971Y-62811885D01*
X76219971Y-62811885D02*
X76267590Y-62907123D01*
X76267590Y-62907123D02*
X76315209Y-62954742D01*
X76315209Y-62954742D02*
X76410447Y-63002361D01*
X81839019Y-60478551D02*
X80839019Y-60478551D01*
X80839019Y-60478551D02*
X80839019Y-60097599D01*
X80839019Y-60097599D02*
X80886638Y-60002361D01*
X80886638Y-60002361D02*
X80934257Y-59954742D01*
X80934257Y-59954742D02*
X81029495Y-59907123D01*
X81029495Y-59907123D02*
X81172352Y-59907123D01*
X81172352Y-59907123D02*
X81267590Y-59954742D01*
X81267590Y-59954742D02*
X81315209Y-60002361D01*
X81315209Y-60002361D02*
X81362828Y-60097599D01*
X81362828Y-60097599D02*
X81362828Y-60478551D01*
X81839019Y-59478551D02*
X80839019Y-59478551D01*
X81839019Y-59002361D02*
X80839019Y-59002361D01*
X80839019Y-59002361D02*
X81839019Y-58430933D01*
X81839019Y-58430933D02*
X80839019Y-58430933D01*
X81839019Y-56669028D02*
X81839019Y-57240456D01*
X81839019Y-56954742D02*
X80839019Y-56954742D01*
X80839019Y-56954742D02*
X80981876Y-57049980D01*
X80981876Y-57049980D02*
X81077114Y-57145218D01*
X81077114Y-57145218D02*
X81124733Y-57240456D01*
D11*
%TO.C,J5*%
X98791600Y-56051600D02*
X101291600Y-56051600D01*
X99091600Y-51731600D02*
X99091600Y-55751600D01*
X99091600Y-55751600D02*
X126811600Y-55751600D01*
X126811600Y-51731600D02*
X99091600Y-51731600D01*
X98791600Y-53551600D02*
X98791600Y-56051600D01*
X126811600Y-55751600D02*
X126811600Y-51731600D01*
%TO.C,J4*%
X115334200Y-112843800D02*
X109314200Y-112843800D01*
X113804200Y-114473800D02*
X114334200Y-114223800D01*
X115334200Y-114473800D02*
X114334200Y-114473800D01*
X109314200Y-112843800D02*
X109314200Y-123223800D01*
X109314200Y-123223800D02*
X115334200Y-123223800D01*
X109914200Y-122643800D02*
X109914200Y-121043800D01*
X109914200Y-120103800D02*
X109914200Y-118503800D01*
X115334200Y-121843800D02*
X114334200Y-121843800D01*
X109314200Y-117563800D02*
X109914200Y-117563800D01*
X109914200Y-117563800D02*
X109914200Y-115963800D01*
X110344200Y-123513800D02*
X114344200Y-123513800D01*
X115334200Y-123223800D02*
X115334200Y-112843800D01*
X109914200Y-115963800D02*
X109314200Y-115963800D01*
X114334200Y-121843800D02*
X114334200Y-114223800D01*
X109914200Y-121043800D02*
X109314200Y-121043800D01*
X109914200Y-113423800D02*
X109314200Y-113423800D01*
X114334200Y-121843800D02*
X113804200Y-121593800D01*
X109914200Y-118503800D02*
X109314200Y-118503800D01*
X114334200Y-114223800D02*
X115334200Y-114223800D01*
X109314200Y-122643800D02*
X109914200Y-122643800D01*
X109914200Y-115023800D02*
X109914200Y-113423800D01*
X113804200Y-121593800D02*
X113804200Y-114473800D01*
X109314200Y-115023800D02*
X109914200Y-115023800D01*
X115334200Y-121593800D02*
X114334200Y-121593800D01*
X109314200Y-120103800D02*
X109914200Y-120103800D01*
D10*
%TO.C,J1*%
X60044500Y-156903400D02*
X61044500Y-157903400D01*
X60044500Y-47633400D02*
X60044500Y-156903400D01*
X60044500Y-47633400D02*
X60044500Y-156903400D01*
X61044500Y-157903400D02*
X69044500Y-157903400D01*
X69044500Y-157903400D02*
X69044500Y-47633400D01*
X69044500Y-47633400D02*
X60044500Y-47633400D01*
X61044500Y-157903400D02*
X69044500Y-157903400D01*
X60044500Y-156903400D02*
X61044500Y-157903400D01*
X69044500Y-47633400D02*
X60044500Y-47633400D01*
X69044500Y-157903400D02*
X69044500Y-47633400D01*
%TO.C,J2*%
X140336100Y-47557200D02*
X140336100Y-156827200D01*
X131336100Y-157827200D02*
X131336100Y-47557200D01*
X139336100Y-157827200D02*
X131336100Y-157827200D01*
X140336100Y-156827200D02*
X139336100Y-157827200D01*
X131336100Y-47557200D02*
X140336100Y-47557200D01*
X140336100Y-156827200D02*
X139336100Y-157827200D01*
X139336100Y-157827200D02*
X131336100Y-157827200D01*
X131336100Y-47557200D02*
X140336100Y-47557200D01*
X131336100Y-157827200D02*
X131336100Y-47557200D01*
X140336100Y-47557200D02*
X140336100Y-156827200D01*
D11*
%TO.C,J3*%
X93180000Y-56481200D02*
X93180000Y-57081200D01*
X93980000Y-51061200D02*
X93980000Y-52061200D01*
X87520000Y-51061200D02*
X87520000Y-57081200D01*
X88100000Y-56481200D02*
X88100000Y-57081200D01*
X92240000Y-56481200D02*
X90640000Y-56481200D01*
X90640000Y-56481200D02*
X90640000Y-57081200D01*
X93730000Y-51061200D02*
X93730000Y-52061200D01*
X95360000Y-51061200D02*
X87520000Y-51061200D01*
X95650000Y-56051200D02*
X95650000Y-52051200D01*
X89700000Y-57081200D02*
X89700000Y-56481200D01*
X88900000Y-52061200D02*
X88900000Y-51061200D01*
X89700000Y-56481200D02*
X88100000Y-56481200D01*
X93980000Y-52061200D02*
X93730000Y-52591200D01*
X93980000Y-52061200D02*
X88900000Y-52061200D01*
X89150000Y-52591200D02*
X88900000Y-52061200D01*
X95360000Y-57081200D02*
X95360000Y-51061200D01*
X89150000Y-51061200D02*
X89150000Y-52061200D01*
X94780000Y-56481200D02*
X93180000Y-56481200D01*
X93730000Y-52591200D02*
X89150000Y-52591200D01*
X94780000Y-57081200D02*
X94780000Y-56481200D01*
X87520000Y-57081200D02*
X95360000Y-57081200D01*
X92240000Y-57081200D02*
X92240000Y-56481200D01*
%TD*%
M02*
