%TF.GenerationSoftware,KiCad,Pcbnew,9.0.2*%
%TF.CreationDate,2025-07-09T23:55:51-04:00*%
%TF.ProjectId,jammaSFTM-CPS,6a616d6d-6153-4465-944d-2d4350532e6b,rev?*%
%TF.SameCoordinates,Original*%
%TF.FileFunction,Paste,Bot*%
%TF.FilePolarity,Positive*%
%FSLAX46Y46*%
G04 Gerber Fmt 4.6, Leading zero omitted, Abs format (unit mm)*
G04 Created by KiCad (PCBNEW 9.0.2) date 2025-07-09 23:55:51*
%MOMM*%
%LPD*%
G01*
G04 APERTURE LIST*
%ADD10R,8.000000X2.350000*%
G04 APERTURE END LIST*
D10*
%TO.C,J1*%
X64544500Y-156228400D03*
X64544500Y-152268400D03*
X64544500Y-148308400D03*
X64544500Y-144348400D03*
X64544500Y-140388400D03*
X64544500Y-136428400D03*
X64544500Y-128508400D03*
X64544500Y-124548400D03*
X64544500Y-120588400D03*
X64544500Y-116628400D03*
X64544500Y-112668400D03*
X64544500Y-108708400D03*
X64544500Y-104748400D03*
X64544500Y-100788400D03*
X64544500Y-96828400D03*
X64544500Y-92868400D03*
X64544500Y-88908400D03*
X64544500Y-84948400D03*
X64544500Y-80988400D03*
X64544500Y-77028400D03*
X64544500Y-73068400D03*
X64544500Y-69108400D03*
X64544500Y-65148400D03*
X64544500Y-61188400D03*
X64544500Y-57228400D03*
X64544500Y-53268400D03*
X64544500Y-49308400D03*
%TD*%
%TO.C,J2*%
X135836100Y-156152200D03*
X135836100Y-152192200D03*
X135836100Y-148232200D03*
X135836100Y-144272200D03*
X135836100Y-140312200D03*
X135836100Y-136352200D03*
X135836100Y-128432200D03*
X135836100Y-124472200D03*
X135836100Y-120512200D03*
X135836100Y-116552200D03*
X135836100Y-112592200D03*
X135836100Y-108632200D03*
X135836100Y-104672200D03*
X135836100Y-100712200D03*
X135836100Y-96752200D03*
X135836100Y-92792200D03*
X135836100Y-88832200D03*
X135836100Y-84872200D03*
X135836100Y-80912200D03*
X135836100Y-76952200D03*
X135836100Y-72992200D03*
X135836100Y-69032200D03*
X135836100Y-65072200D03*
X135836100Y-61112200D03*
X135836100Y-57152200D03*
X135836100Y-53192200D03*
X135836100Y-49232200D03*
%TD*%
M02*
